<?xml version="1.0" standalone="no"?>
<!DOCTYPE svg PUBLIC "-//W3C//DTD SVG 20010904//EN"
 "http://www.w3.org/TR/2001/REC-SVG-20010904/DTD/svg10.dtd">
<svg version="1.0" xmlns="http://www.w3.org/2000/svg"
 width="4491.000000pt" height="2223.000000pt" viewBox="0 0 4491.000000 2223.000000"
 preserveAspectRatio="xMidYMid meet">
<metadata>
Created by potrace 1.16, written by Peter Selinger 2001-2019
</metadata>
<g transform="translate(0.000000,2223.000000) scale(0.100000,-0.100000)"
fill="#000000" stroke="none">
<path d="M12910 22214 c0 -9 5 -14 12 -12 18 6 21 28 4 28 -9 0 -16 -7 -16
-16z"/>
<path d="M14012 22213 c3 -15 15 -18 73 -18 58 0 70 3 73 18 3 15 -6 17 -73
17 -67 0 -76 -2 -73 -17z"/>
<path d="M16025 22219 c-4 -6 -4 -13 -1 -16 8 -8 36 5 36 17 0 13 -27 13 -35
-1z"/>
<path d="M16097 22223 c-4 -3 -7 -12 -7 -20 0 -23 103 -17 125 7 18 20 17 20
-47 20 -35 0 -68 -3 -71 -7z"/>
<path d="M17032 22213 c3 -16 16 -18 103 -18 87 0 100 2 103 18 3 15 -7 17
-103 17 -96 0 -106 -2 -103 -17z"/>
<path d="M18582 22213 c5 -25 131 -26 136 0 3 15 -5 17 -68 17 -61 0 -71 -2
-68 -17z"/>
<path d="M19892 22213 c3 -16 16 -18 108 -18 92 0 105 2 108 18 3 15 -7 17
-108 17 -101 0 -111 -2 -108 -17z"/>
<path d="M32105 22084 c-116 -21 -185 -39 -315 -83 -230 -78 -650 -241 -865
-336 -144 -64 -624 -302 -780 -387 -55 -30 -131 -72 -170 -93 -167 -91 -400
-223 -520 -295 -71 -43 -242 -145 -380 -228 -270 -161 -392 -237 -640 -400
-88 -58 -189 -124 -225 -147 -36 -23 -125 -82 -198 -131 -119 -80 -220 -145
-378 -246 -122 -78 -328 -200 -442 -262 -179 -98 -566 -289 -647 -320 -38 -15
-90 -35 -115 -46 -25 -10 -63 -24 -85 -31 -22 -6 -46 -18 -52 -27 -20 -25 -16
-85 6 -99 16 -10 18 -18 12 -41 -15 -50 28 -84 152 -122 109 -33 487 -80 762
-95 153 -9 391 -31 515 -49 58 -8 151 -20 206 -26 56 -6 117 -15 135 -20 19
-6 47 -10 64 -10 16 0 39 -7 49 -15 11 -8 38 -15 60 -15 45 0 233 -61 338
-109 37 -16 90 -38 117 -47 28 -9 54 -20 57 -25 3 -5 14 -4 25 1 13 7 19 7 19
0 0 -5 6 -10 13 -10 18 0 132 -56 182 -90 22 -15 87 -58 145 -96 90 -59 145
-109 385 -351 286 -289 396 -403 419 -437 13 -18 16 -16 70 36 38 39 56 64 56
81 0 36 -43 82 -103 111 -39 19 -112 84 -296 266 -274 271 -424 406 -497 446
-27 15 -74 43 -104 62 -30 19 -87 50 -125 67 -39 18 -76 40 -84 49 -7 8 -17
14 -21 11 -4 -3 -10 2 -14 10 -3 8 -12 15 -21 15 -8 0 -15 3 -15 8 0 4 -10 12
-23 18 -12 6 -51 27 -87 47 -80 44 -261 104 -469 156 -166 42 -593 116 -726
126 -44 3 -114 10 -155 15 -41 5 -120 14 -175 20 -269 29 -431 55 -452 72 -6
5 -17 8 -25 6 -7 -1 -15 1 -18 6 -4 8 96 65 255 145 22 11 47 25 55 30 8 5 53
26 98 47 46 21 79 40 72 42 -6 2 -62 -21 -125 -52 -123 -60 -138 -65 -128 -40
3 9 2 15 -3 12 -98 -45 -240 -114 -275 -133 -51 -27 -89 -32 -89 -12 1 11 233
131 340 176 25 10 93 45 150 77 58 33 125 68 150 79 25 10 64 32 87 47 23 15
44 28 47 28 6 0 132 75 226 135 36 23 70 44 75 46 6 2 42 25 82 52 39 26 75
47 79 47 4 0 31 16 60 36 42 29 56 34 67 25 11 -8 18 -6 32 9 19 21 7 28 -13
8 -6 -6 -14 -9 -18 -6 -3 4 7 14 23 24 15 9 53 33 83 53 69 45 75 47 67 27 -9
-23 15 -20 42 5 16 16 20 24 11 29 -9 5 -5 13 11 25 65 46 404 264 554 355 39
23 142 86 230 140 88 53 185 111 215 127 30 17 116 67 190 113 74 45 162 97
195 114 33 18 78 44 100 59 22 15 42 27 45 27 3 0 64 32 135 70 130 71 191 92
95 32 -28 -18 -53 -32 -55 -32 -2 0 -46 -26 -97 -58 -51 -32 -100 -61 -108
-65 -8 -4 -41 -22 -72 -40 -32 -17 -86 -47 -119 -65 -34 -18 -97 -55 -139 -83
-42 -27 -82 -49 -87 -49 -6 0 -16 -7 -23 -15 -7 -8 -16 -12 -21 -10 -4 3 -16
-3 -26 -13 -15 -16 -75 -56 -158 -105 -11 -7 -27 -20 -37 -30 -9 -11 -22 -16
-28 -12 -11 7 -43 -19 -34 -28 3 -3 -4 -10 -15 -17 -12 -6 -21 -8 -21 -4 0 4
-11 -4 -25 -18 -13 -13 -41 -33 -62 -44 -21 -10 -40 -22 -43 -25 -8 -8 -132
-92 -405 -272 -137 -91 -286 -190 -330 -220 -62 -43 -287 -191 -405 -267 -8
-5 -31 -20 -51 -33 -20 -14 -66 -42 -103 -63 -37 -22 -75 -44 -84 -49 -9 -6
-38 -23 -64 -39 -27 -15 -48 -30 -48 -32 0 -7 175 88 178 97 2 5 10 9 19 9 8
0 29 11 47 25 18 14 36 25 39 25 9 0 438 272 657 417 58 38 136 89 175 114 38
24 145 94 237 154 93 61 194 126 226 146 185 115 386 237 517 314 83 48 182
106 220 130 81 49 329 188 510 285 44 24 85 47 91 52 24 18 616 308 630 308 2
0 39 16 81 36 147 68 268 121 363 159 200 79 268 105 360 139 52 19 140 53
195 74 163 64 290 99 509 142 60 11 113 23 118 26 4 3 8 18 8 33 0 74 -116 99
-305 65z m-1908 -890 c-3 -3 -12 -4 -19 -1 -8 3 -5 6 6 6 11 1 17 -2 13 -5z
m-67 -38 c0 -7 -110 -59 -115 -54 -3 3 18 17 47 31 51 26 68 31 68 23z m-153
-82 c-3 -3 -12 -4 -19 -1 -8 3 -5 6 6 6 11 1 17 -2 13 -5z m-1057 -644 c0 -5
-5 -10 -11 -10 -5 0 -7 5 -4 10 3 6 8 10 11 10 2 0 4 -4 4 -10z m-1140 -1719
c42 -9 41 -9 -20 -6 -102 7 -170 16 -166 24 5 7 113 -3 186 -18z m380 -11 c0
-13 -11 -13 -30 0 -12 8 -11 10 8 10 12 0 22 -4 22 -10z m-245 -20 c8 -13 -5
-13 -25 0 -13 8 -13 10 2 10 9 0 20 -4 23 -10z m348 -7 c-7 -2 -21 -2 -30 0
-10 3 -4 5 12 5 17 0 24 -2 18 -5z m-128 -33 c185 -42 358 -98 349 -112 -3 -4
-13 -4 -22 1 -9 5 -35 14 -57 20 -22 6 -71 19 -110 30 -38 11 -86 22 -105 26
-19 4 -39 11 -45 15 -5 4 -23 10 -40 13 -16 3 -48 11 -70 16 l-40 10 45 -4
c25 -2 68 -8 95 -15z m219 11 c3 -5 23 -12 43 -16 44 -8 174 -49 218 -69 107
-49 274 -132 298 -149 55 -38 18 -27 -99 28 -140 67 -299 135 -313 135 -8 0
-69 24 -156 61 -11 4 -31 10 -45 12 -18 3 -14 5 12 6 20 0 39 -3 42 -8z m229
-149 c20 -9 37 -20 37 -24 0 -4 -9 -4 -20 2 -11 5 -29 15 -40 20 -11 6 -26 10
-34 10 -8 0 -18 5 -22 11 -8 13 20 6 79 -19z m204 -98 c-7 -7 -37 7 -37 17 0
6 9 5 21 -1 11 -7 19 -14 16 -16z m200 -30 c-3 -3 -12 -4 -19 -1 -8 3 -5 6 6
6 11 1 17 -2 13 -5z m87 -59 c16 -12 17 -15 4 -15 -8 0 -21 7 -28 15 -16 19
-1 19 24 0z"/>
<path d="M32277 21924 c-124 -22 -345 -80 -437 -114 -47 -17 -134 -49 -195
-71 -97 -35 -230 -87 -455 -176 -36 -15 -115 -50 -177 -80 -61 -29 -115 -53
-120 -53 -4 0 -19 -10 -33 -21 l-25 -20 25 6 c14 4 39 13 55 20 71 31 313 117
383 136 42 12 89 28 104 35 68 35 194 75 227 72 l36 -3 -65 -32 c-62 -31 -244
-146 -279 -176 -9 -8 -38 -27 -66 -42 -48 -26 -158 -91 -199 -118 -11 -6 -72
-46 -136 -87 -183 -117 -489 -337 -655 -470 -38 -31 -124 -99 -190 -152 -168
-133 -228 -189 -498 -462 -266 -269 -288 -295 -409 -486 -104 -164 -134 -250
-87 -250 16 0 19 -4 14 -17 -17 -42 -16 -52 8 -68 16 -10 34 -14 50 -10 14 4
28 2 31 -4 4 -6 14 -11 22 -11 19 0 68 56 75 88 25 100 115 259 136 239 8 -8
-19 -66 -49 -106 -10 -13 -18 -32 -18 -43 0 -11 -14 -39 -30 -64 -34 -49 -32
-51 37 -28 26 9 53 18 58 19 9 2 21 6 55 19 8 4 -5 4 -30 2 -63 -7 -79 5 -44
33 15 12 39 24 53 27 14 3 58 14 96 24 96 26 483 123 575 144 41 10 125 31
185 49 93 27 105 32 80 37 -16 4 -34 3 -39 -2 -6 -4 -19 -8 -31 -8 -12 0 -25
-4 -30 -9 -6 -5 -41 -11 -80 -14 l-70 -6 45 15 c25 8 65 19 90 23 25 5 70 16
100 25 200 57 242 69 305 82 39 8 87 18 108 21 20 3 40 9 43 14 3 5 17 9 31 9
14 0 71 11 127 24 184 43 382 85 561 117 127 23 275 52 330 65 l60 13 -55 -3
c-30 -2 -86 -8 -125 -15 -38 -6 -101 -16 -140 -22 -38 -6 -86 -15 -105 -19
-19 -5 -89 -21 -155 -35 -66 -15 -136 -30 -155 -35 -47 -11 -279 -60 -380 -80
-25 -4 -72 -16 -105 -24 -33 -9 -105 -25 -160 -36 -55 -11 -122 -25 -150 -30
-27 -6 -97 -21 -155 -35 -110 -27 -143 -35 -250 -59 -64 -15 -266 -62 -385
-91 -144 -34 -167 -37 -177 -27 -13 13 -1 50 26 76 12 12 49 57 83 101 161
213 403 458 726 734 198 169 262 221 381 311 22 17 33 30 25 30 -9 0 -24 -8
-35 -17 -10 -10 -38 -30 -61 -46 -24 -15 -43 -32 -43 -37 0 -6 -5 -10 -11 -10
-6 0 -28 -13 -49 -30 -21 -16 -43 -30 -48 -30 -6 0 -17 -8 -24 -18 -7 -9 -23
-24 -34 -32 -71 -49 -346 -284 -467 -399 -37 -35 -69 -62 -71 -60 -7 6 72 88
154 159 41 36 77 68 80 71 3 3 28 23 55 45 28 21 64 51 80 66 61 54 103 88
110 88 4 0 23 16 44 35 65 62 105 96 141 121 19 13 71 51 115 84 87 66 190
135 245 165 19 11 53 34 75 51 60 47 495 332 586 384 15 8 58 36 95 61 83 55
250 149 264 149 5 0 10 5 10 10 0 6 8 10 18 10 11 0 27 9 37 20 10 12 24 19
31 16 7 -3 14 -1 16 3 5 14 100 71 109 65 5 -3 9 0 9 6 0 17 60 49 135 71 67
20 147 73 159 104 7 19 -20 18 -127 -1z m-2447 -1797 c0 -2 -10 -12 -22 -23
l-23 -19 19 23 c18 21 26 27 26 19z m-50 -47 c0 -5 -5 -10 -11 -10 -5 0 -7 5
-4 10 3 6 8 10 11 10 2 0 4 -4 4 -10z m-147 -164 c-10 -13 -19 -23 -21 -21 -5
5 22 45 31 45 4 0 0 -11 -10 -24z m-39 -38 c-4 -7 -15 -22 -26 -33 -10 -11
-27 -31 -38 -45 -11 -14 -19 -20 -20 -14 0 7 19 33 41 58 41 45 57 58 43 34z
m-128 -146 c-17 -16 -18 -16 -5 5 7 12 15 20 18 17 3 -2 -3 -12 -13 -22z m604
-84 c-27 -11 -188 -48 -204 -47 -6 0 27 11 72 24 46 13 86 26 90 29 3 3 19 6
36 5 31 0 31 0 6 -11z m-353 -84 c-3 -3 -12 -4 -19 -1 -8 3 -5 6 6 6 11 1 17
-2 13 -5z"/>
<path d="M31759 21530 c-31 -26 -15 -26 18 0 14 11 21 20 15 20 -5 0 -20 -9
-33 -20z"/>
<path d="M31670 21482 c-14 -9 -26 -20 -28 -24 -2 -5 -9 -8 -16 -8 -6 0 -27
-13 -46 -29 -19 -15 -45 -31 -57 -35 -13 -4 -23 -12 -23 -17 0 -5 -6 -9 -14
-9 -16 0 -31 -18 -23 -26 5 -5 176 100 204 125 7 6 17 11 23 11 5 0 10 4 10 9
0 5 8 12 18 14 14 4 14 5 -3 5 -11 1 -31 -7 -45 -16z"/>
<path d="M30748 21353 c7 -3 16 -2 19 1 4 3 -2 6 -13 5 -11 0 -14 -3 -6 -6z"/>
<path d="M30880 20960 c-8 -5 -12 -12 -9 -15 4 -3 12 1 19 10 14 17 11 19 -10
5z"/>
<path d="M30815 20910 c4 -6 11 -8 16 -5 14 9 11 15 -7 15 -8 0 -12 -5 -9 -10z"/>
<path d="M30729 20853 c-13 -17 -13 -17 6 -3 11 8 22 16 24 17 2 2 0 3 -6 3
-6 0 -17 -8 -24 -17z"/>
<path d="M39371 20404 c-65 -91 -51 -122 38 -83 56 24 66 41 53 99 -13 57 -42
52 -91 -16z"/>
<path d="M34910 20300 c20 -13 67 -13 75 0 4 6 -12 10 -42 10 -35 0 -44 -3
-33 -10z"/>
<path d="M34088 20283 c12 -2 30 -2 40 0 9 3 -1 5 -23 4 -22 0 -30 -2 -17 -4z"/>
<path d="M35565 20270 c3 -5 24 -10 46 -10 24 0 38 4 34 10 -3 6 -24 10 -46
10 -24 0 -38 -4 -34 -10z"/>
<path d="M32748 20213 c12 -2 32 -2 45 0 12 2 2 4 -23 4 -25 0 -35 -2 -22 -4z"/>
<path d="M33238 20213 c6 -2 18 -2 25 0 6 3 1 5 -13 5 -14 0 -19 -2 -12 -5z"/>
<path d="M32638 20193 c7 -3 16 -2 19 1 4 3 -2 6 -13 5 -11 0 -14 -3 -6 -6z"/>
<path d="M32480 20174 l-65 -13 63 4 c35 3 71 9 80 15 23 13 6 11 -78 -6z"/>
<path d="M32288 20143 c6 -2 18 -2 25 0 6 3 1 5 -13 5 -14 0 -19 -2 -12 -5z"/>
<path d="M36838 20143 c12 -2 30 -2 40 0 9 3 -1 5 -23 4 -22 0 -30 -2 -17 -4z"/>
<path d="M31988 20093 c6 -2 18 -2 25 0 6 3 1 5 -13 5 -14 0 -19 -2 -12 -5z"/>
<path d="M37848 19953 c6 -2 18 -2 25 0 6 3 1 5 -13 5 -14 0 -19 -2 -12 -5z"/>
<path d="M37518 19933 c7 -3 16 -2 19 1 4 3 -2 6 -13 5 -11 0 -14 -3 -6 -6z"/>
<path d="M37608 19913 c6 -2 18 -2 25 0 6 3 1 5 -13 5 -14 0 -19 -2 -12 -5z"/>
<path d="M31230 19900 c-20 -12 -9 -21 18 -13 12 3 19 9 16 14 -7 11 -15 11
-34 -1z"/>
<path d="M38350 19840 c14 -4 32 -8 40 -9 13 -1 13 0 0 9 -8 5 -26 9 -40 9
l-25 -1 25 -8z"/>
<path d="M30948 19833 c7 -3 16 -2 19 1 4 3 -2 6 -13 5 -11 0 -14 -3 -6 -6z"/>
<path d="M30868 19813 c6 -2 18 -2 25 0 6 3 1 5 -13 5 -14 0 -19 -2 -12 -5z"/>
<path d="M38438 19813 c7 -3 16 -2 19 1 4 3 -2 6 -13 5 -11 0 -14 -3 -6 -6z"/>
<path d="M38523 19793 c9 -2 23 -2 30 0 6 3 -1 5 -18 5 -16 0 -22 -2 -12 -5z"/>
<path d="M38593 19782 c-8 -5 11 -14 50 -25 34 -10 76 -21 92 -27 17 -5 48
-12 70 -16 60 -10 32 12 -40 31 -61 17 -105 29 -140 39 -11 4 -25 3 -32 -2z"/>
<path d="M30625 19770 c-16 -4 -41 -13 -55 -19 -39 -18 79 -5 121 14 l34 14
-35 0 c-19 -1 -48 -5 -65 -9z"/>
<path d="M38340 19752 c0 -11 87 -33 123 -31 15 1 9 5 -18 14 -69 21 -105 27
-105 17z"/>
<path d="M27757 19729 c-9 -6 -17 -14 -17 -19 0 -17 27 -11 34 6 8 22 5 25
-17 13z"/>
<path d="M30468 19723 c7 -3 16 -2 19 1 4 3 -2 6 -13 5 -11 0 -14 -3 -6 -6z"/>
<path d="M38865 19700 c11 -5 29 -9 40 -9 17 -1 17 1 5 9 -8 5 -26 9 -40 9
-23 0 -23 -1 -5 -9z"/>
<path d="M38604 19682 c3 -5 31 -14 63 -21 88 -19 93 -20 87 -10 -3 5 -16 9
-28 9 -13 0 -40 7 -59 15 -40 16 -71 20 -63 7z"/>
<path d="M38986 19665 c10 -8 30 -15 44 -15 14 0 50 -13 80 -28 54 -28 78 -36
195 -68 33 -9 76 -22 95 -29 19 -7 69 -23 110 -35 70 -21 156 -51 240 -85 19
-8 60 -22 90 -31 115 -35 229 -77 335 -123 61 -27 128 -54 150 -61 22 -7 44
-16 50 -21 5 -5 17 -9 26 -9 10 0 46 -13 81 -29 35 -15 77 -33 93 -39 17 -6
77 -32 135 -57 58 -26 136 -60 173 -76 37 -15 80 -37 95 -47 15 -11 38 -23 52
-27 14 -4 58 -25 98 -46 41 -22 80 -39 88 -39 19 0 111 -46 119 -60 9 -14 28
-13 23 2 -5 14 -116 75 -328 179 -232 115 -329 159 -345 159 -8 0 -16 4 -19 9
-3 4 -40 21 -83 36 -43 15 -82 31 -88 36 -14 10 -200 88 -255 106 -25 8 -58
21 -75 28 -16 7 -66 25 -110 39 -44 15 -89 31 -100 36 -11 5 -49 18 -85 30
-36 12 -69 25 -75 29 -5 5 -37 16 -70 26 -71 20 -120 35 -235 71 -47 14 -92
28 -100 31 -13 4 -12 6 3 17 15 12 13 14 -20 20 -21 3 -51 6 -68 6 -17 0 -25
4 -18 8 6 4 -12 7 -41 7 -28 1 -71 9 -94 18 -24 10 -48 15 -53 12 -5 -4 -15
-3 -21 2 -19 12 -81 33 -97 33 -11 0 -9 -4 5 -15z"/>
<path d="M38780 19630 c8 -5 37 -14 65 -20 27 -6 59 -15 70 -19 11 -5 36 -13
55 -19 220 -65 592 -188 865 -285 173 -61 526 -201 632 -249 34 -15 64 -28 67
-28 3 0 34 -13 68 -29 35 -16 99 -45 143 -64 44 -19 116 -51 160 -72 44 -21
121 -57 170 -80 50 -23 101 -46 115 -50 14 -4 59 -26 100 -48 41 -22 129 -68
195 -102 66 -34 153 -83 193 -108 40 -26 74 -47 77 -47 7 0 153 -93 293 -187
67 -46 126 -83 131 -83 5 0 14 -7 22 -16 7 -8 31 -25 53 -36 l41 -21 -20 23
c-11 12 -31 28 -45 35 -14 7 -45 32 -70 55 -25 23 -72 58 -105 77 -33 20 -103
64 -156 98 -86 56 -134 84 -279 163 -25 13 -49 28 -55 32 -8 7 -301 158 -505
260 -30 16 -127 61 -215 100 -88 40 -178 81 -200 91 -22 10 -96 40 -165 67
-69 27 -181 72 -250 99 -69 28 -154 60 -190 73 -78 26 -197 69 -225 81 -75 31
-111 45 -200 74 -55 18 -154 49 -220 69 -66 20 -136 41 -155 47 -19 6 -44 14
-55 19 -11 5 -65 21 -120 36 -55 14 -138 37 -185 50 -91 26 -126 31 -100 14z"/>
<path d="M27575 19605 c-31 -19 -35 -24 -19 -25 11 0 31 11 44 25 29 31 25 31
-25 0z"/>
<path d="M27390 19493 c-8 -4 -37 -21 -64 -40 -51 -35 -43 -46 9 -12 17 11 38
22 48 25 9 4 17 10 17 14 0 5 8 11 18 13 11 3 12 5 2 5 -8 0 -22 -2 -30 -5z"/>
<path d="M27115 19343 c-49 -26 -90 -63 -70 -63 26 0 115 51 115 67 0 17 -8
16 -45 -4z"/>
<path d="M27190 19321 c0 -5 -8 -12 -17 -14 -14 -4 -15 -5 -2 -6 8 0 24 6 35
14 17 13 17 14 2 15 -10 0 -18 -4 -18 -9z"/>
<path d="M41385 18720 c3 -5 10 -10 16 -10 5 0 9 5 9 10 0 6 -7 10 -16 10 -8
0 -12 -4 -9 -10z"/>
<path d="M41432 18690 c12 -18 48 -29 48 -14 0 10 -33 33 -48 34 -10 0 -10 -4
0 -20z"/>
<path d="M41490 18666 c0 -9 5 -16 10 -16 6 0 10 4 10 9 0 6 -4 13 -10 16 -5
3 -10 -1 -10 -9z"/>
<path d="M41590 18622 c0 -5 11 -14 25 -20 29 -13 33 -5 8 14 -21 15 -33 18
-33 6z"/>
<path d="M41655 18579 c7 -10 141 -99 150 -99 3 0 35 -21 71 -46 36 -25 89
-58 117 -73 82 -44 127 -72 127 -80 0 -4 12 -13 28 -20 37 -17 155 -96 225
-151 32 -25 82 -63 112 -85 73 -55 250 -199 305 -249 73 -67 140 -119 146
-114 18 18 -285 277 -514 440 -37 26 -82 60 -100 74 -18 15 -79 56 -135 91
-56 36 -113 74 -127 84 -14 11 -34 23 -46 28 -11 5 -72 42 -135 83 -63 41
-131 82 -151 91 -20 10 -40 22 -43 27 -3 6 -13 10 -21 10 -8 0 -12 -5 -9 -11z"/>
<path d="M42950 17643 c0 -10 63 -63 74 -63 6 0 -5 16 -24 35 -32 34 -50 43
-50 28z"/>
<path d="M43050 17554 c0 -4 71 -80 158 -168 87 -89 176 -183 197 -211 22 -27
80 -98 130 -156 97 -114 102 -120 244 -309 200 -264 376 -570 525 -912 31 -71
112 -301 132 -373 4 -16 9 -50 9 -75 2 -49 37 -165 65 -215 9 -16 20 -48 24
-70 4 -22 20 -92 35 -155 58 -235 88 -411 136 -795 9 -71 21 -161 26 -200 5
-38 14 -131 20 -205 19 -251 28 -300 23 -130 -7 218 -40 591 -69 775 -8 55
-20 129 -25 165 -10 70 -19 115 -49 255 -11 50 -24 115 -31 145 -6 30 -16 69
-21 86 -5 17 -9 42 -9 57 0 14 -4 28 -9 31 -4 3 -11 20 -15 38 -7 36 -43 162
-56 193 -4 11 -16 52 -26 90 -9 39 -21 77 -24 85 -13 26 -27 64 -45 115 -9 28
-20 59 -25 70 -5 11 -32 79 -61 150 -76 189 -192 418 -284 560 -240 370 -327
489 -549 745 -159 183 -426 443 -426 414z m1415 -2203 c3 -5 1 -12 -5 -16 -5
-3 -10 1 -10 9 0 18 6 21 15 7z"/>
<path d="M19596 17193 c-1 -1 -126 -3 -277 -5 -347 -2 -577 -14 -1049 -53
-359 -30 -714 -76 -1150 -151 -80 -14 -195 -34 -256 -44 -61 -10 -169 -30
-240 -44 -71 -14 -196 -37 -279 -51 -82 -15 -199 -35 -260 -46 -60 -11 -173
-31 -250 -45 -77 -14 -165 -29 -195 -34 -30 -5 -122 -20 -205 -35 -284 -49
-380 -65 -440 -74 -33 -6 -127 -21 -210 -36 -82 -14 -188 -32 -235 -40 -47 -7
-134 -23 -195 -35 -60 -11 -135 -25 -165 -30 -30 -5 -95 -16 -145 -25 -49 -9
-109 -19 -132 -22 -24 -3 -43 -9 -43 -14 0 -9 52 -3 120 13 25 6 72 14 105 19
145 20 264 38 320 49 33 6 116 19 185 30 69 10 148 23 175 29 28 5 82 14 120
20 39 7 122 20 185 31 63 11 149 24 190 30 85 13 132 20 310 49 69 11 159 25
200 31 41 6 104 17 140 25 36 7 99 19 140 25 41 6 93 15 115 20 34 8 115 21
273 46 17 3 32 1 32 -4 0 -4 -46 -16 -102 -25 -57 -10 -141 -24 -188 -33 -47
-8 -110 -19 -140 -24 -30 -5 -95 -16 -145 -24 -49 -8 -115 -20 -145 -27 -30
-6 -75 -15 -100 -19 -25 -4 -112 -19 -195 -33 -82 -14 -193 -33 -245 -42 -167
-28 -272 -46 -375 -65 -55 -10 -131 -23 -170 -30 -66 -10 -142 -24 -360 -65
-49 -9 -148 -28 -220 -42 -71 -15 -164 -32 -205 -39 -184 -30 -257 -53 -165
-53 28 0 68 4 90 9 37 9 97 19 345 55 132 19 156 23 315 50 136 24 700 110
820 126 59 8 119 17 240 38 33 6 74 10 90 10 32 -1 -48 -20 -165 -39 -36 -6
-87 -15 -115 -20 -27 -4 -81 -13 -120 -19 -38 -5 -113 -19 -165 -30 -52 -11
-185 -34 -295 -52 -202 -32 -229 -37 -365 -62 -41 -8 -154 -29 -250 -46 -96
-18 -213 -41 -260 -51 -47 -11 -96 -22 -110 -24 -76 -11 -110 -20 -110 -28 0
-6 7 -7 16 -4 10 4 67 13 128 22 61 8 230 36 376 60 146 25 303 49 350 55 47
5 153 23 235 39 153 29 241 43 375 60 41 5 116 18 165 30 50 11 137 27 195 36
58 9 130 20 160 25 30 5 115 15 188 23 73 8 172 26 220 40 57 16 134 28 222
35 74 5 232 25 350 45 118 19 323 51 455 71 132 20 298 45 369 56 635 98 908
117 1836 125 333 3 615 7 628 10 15 3 20 9 15 17 -4 6 -7 21 -8 32 0 14 -8 21
-28 23 -37 4 -29 25 12 33 44 9 53 21 55 64 1 36 -1 38 -44 51 -36 12 -336 35
-344 27z m-3038 -360 c-10 -2 -28 -2 -40 0 -13 2 -5 4 17 4 22 1 32 -1 23 -4z
m-548 -183 c-53 -12 -134 -21 -128 -14 8 7 94 22 133 22 29 0 29 0 -5 -8z
m-140 -18 c0 -10 -87 -30 -147 -35 -24 -1 -43 0 -43 4 0 6 29 12 135 29 28 4
51 8 53 9 1 0 2 -3 2 -7z"/>
<path d="M20793 17163 c-18 -7 -16 -23 2 -23 8 0 15 7 15 15 0 8 -1 15 -2 14
-2 0 -9 -3 -15 -6z"/>
<path d="M27090 17050 c0 -5 7 -10 16 -10 8 0 12 5 9 10 -3 6 -10 10 -16 10
-5 0 -9 -4 -9 -10z"/>
<path d="M43701 16734 c0 -11 3 -14 6 -6 3 7 2 16 -1 19 -3 4 -6 -2 -5 -13z"/>
<path d="M43696 16667 c3 -10 9 -15 12 -12 3 3 0 11 -7 18 -10 9 -11 8 -5 -6z"/>
<path d="M43770 16562 c0 -5 7 -15 15 -22 8 -7 15 -8 15 -2 0 5 -7 15 -15 22
-8 7 -15 8 -15 2z"/>
<path d="M43861 16434 c0 -11 3 -14 6 -6 3 7 2 16 -1 19 -3 4 -6 -2 -5 -13z"/>
<path d="M13805 16400 l-40 -7 48 -2 c26 0 47 4 47 9 0 6 -3 9 -7 9 -5 -1 -26
-5 -48 -9z"/>
<path d="M13688 16373 c6 -2 18 -2 25 0 6 3 1 5 -13 5 -14 0 -19 -2 -12 -5z"/>
<path d="M13638 16363 c6 -2 18 -2 25 0 6 3 1 5 -13 5 -14 0 -19 -2 -12 -5z"/>
<path d="M13545 16350 l-40 -7 42 -2 c23 0 45 4 48 9 3 6 3 9 -2 9 -4 -1 -26
-5 -48 -9z"/>
<path d="M13418 16323 c12 -2 30 -2 40 0 9 3 -1 5 -23 4 -22 0 -30 -2 -17 -4z"/>
<path d="M43945 16300 c3 -5 8 -10 11 -10 2 0 4 5 4 10 0 6 -5 10 -11 10 -5 0
-7 -4 -4 -10z"/>
<path d="M13546 16203 c-4 -4 -28 -10 -54 -14 l-47 -6 55 -1 c30 0 71 6 90 13
l35 13 -36 1 c-20 1 -39 -2 -43 -6z"/>
<path d="M44121 15824 c0 -11 3 -14 6 -6 3 7 2 16 -1 19 -3 4 -6 -2 -5 -13z"/>
<path d="M44142 15780 c0 -14 2 -19 5 -12 2 6 2 18 0 25 -3 6 -5 1 -5 -13z"/>
<path d="M44261 15784 c0 -11 3 -14 6 -6 3 7 2 16 -1 19 -3 4 -6 -2 -5 -13z"/>
<path d="M11468 15763 c6 -2 18 -2 25 0 6 3 1 5 -13 5 -14 0 -19 -2 -12 -5z"/>
<path d="M44240 15542 c0 -8 17 -64 38 -125 26 -78 38 -104 40 -86 2 15 -8 58
-21 96 -27 77 -56 136 -57 115z"/>
<path d="M44370 15520 c1 -19 39 -89 40 -72 0 6 -9 29 -20 49 -11 21 -20 31
-20 23z"/>
<path d="M44332 15280 c0 -14 2 -19 5 -12 2 6 2 18 0 25 -3 6 -5 1 -5 -13z"/>
<path d="M44396 15284 c-4 -12 7 -63 24 -120 34 -111 80 -296 105 -424 10 -47
21 -105 26 -130 5 -25 14 -72 19 -105 5 -33 18 -109 29 -170 35 -197 71 -502
71 -600 0 -86 -7 -81 -14 10 -8 106 -18 165 -26 160 -8 -5 -5 -111 10 -285 12
-139 6 -741 -9 -905 -44 -476 -175 -1205 -277 -1528 -31 -101 -73 -222 -89
-262 -60 -143 -84 -204 -90 -225 -4 -14 -15 -36 -24 -50 -9 -14 -30 -52 -46
-85 -99 -203 -228 -375 -439 -586 -158 -157 -173 -160 -25 -4 163 171 301 358
400 541 64 120 129 248 129 256 0 4 13 36 29 70 27 59 109 297 145 418 16 55
64 265 85 370 6 30 16 78 22 105 5 28 16 86 24 130 7 44 23 132 35 195 25 129
31 172 55 380 20 173 29 343 15 290 -5 -19 -12 -82 -15 -140 -3 -58 -10 -123
-15 -145 -4 -22 -13 -78 -20 -125 -6 -47 -15 -110 -20 -140 -21 -120 -42 -237
-51 -280 -5 -25 -20 -101 -34 -170 -39 -189 -64 -292 -106 -437 -37 -123 -60
-189 -154 -438 -38 -99 -135 -295 -161 -326 -8 -8 -14 -19 -14 -23 0 -9 -86
-134 -142 -207 -143 -187 -363 -410 -548 -557 -58 -46 -125 -100 -150 -121
-41 -34 -222 -160 -405 -281 -142 -95 -345 -206 -520 -285 -27 -13 -84 -39
-126 -59 -41 -20 -84 -36 -95 -36 -12 0 -24 -3 -28 -7 -4 -5 -11 -8 -14 -9 -4
0 -20 -7 -37 -14 -16 -7 -40 -12 -52 -11 -16 2 -23 -3 -23 -15 0 -13 -6 -15
-32 -10 -23 4 -28 3 -18 -3 22 -15 3 -26 -22 -14 -13 6 -30 7 -38 2 -25 -14
-261 -89 -279 -89 -13 1 -11 5 8 20 13 11 18 20 12 20 -21 0 -163 -42 -244
-72 -45 -16 -97 -35 -114 -41 -34 -11 -44 -27 -18 -27 8 0 15 5 15 10 0 6 12
10 26 10 14 0 35 5 46 11 13 7 24 7 30 1 6 -6 -15 -16 -59 -27 -37 -9 -76 -21
-85 -26 -23 -12 -48 -12 -48 0 0 5 6 12 13 14 7 4 6 6 -4 6 -9 1 -30 -6 -45
-14 l-29 -15 29 0 c16 0 27 -3 23 -6 -6 -7 -159 -54 -197 -61 -24 -4 -24 -4
-6 11 19 15 19 16 -8 16 -35 0 -104 -38 -111 -61 -7 -22 -42 -31 -49 -12 -4
11 -10 11 -26 3 -11 -6 -53 -22 -93 -35 -75 -24 -138 -48 -312 -118 -55 -22
-122 -48 -150 -59 -27 -10 -63 -25 -80 -33 -28 -12 -128 -56 -250 -107 -96
-41 -161 -71 -295 -138 -118 -59 -169 -86 -280 -151 -13 -8 -69 -48 -125 -89
-104 -78 -210 -176 -399 -369 -125 -128 -240 -224 -318 -265 -115 -62 -208
-106 -221 -106 -8 0 -20 -6 -26 -14 -6 -7 -24 -16 -39 -19 -15 -3 -47 -19 -72
-36 -25 -17 -51 -31 -58 -31 -8 0 -26 -8 -40 -19 -15 -10 -34 -21 -42 -24 -8
-4 8 -4 35 -1 47 6 49 5 30 -10 -11 -8 -27 -16 -35 -16 -8 0 -36 -11 -61 -24
-26 -12 -57 -27 -70 -31 -24 -7 -24 -8 -2 -12 12 -2 79 16 150 41 70 24 193
66 273 91 80 26 179 60 220 76 41 15 94 33 117 39 35 9 74 43 260 226 373 369
515 468 965 670 57 25 155 72 218 104 135 68 422 192 715 308 151 60 248 93
515 178 80 25 240 77 355 114 116 38 237 76 270 85 33 10 75 26 93 36 18 10
58 27 90 38 53 18 231 91 296 122 168 79 382 194 422 228 6 5 21 12 34 16 13
4 51 26 84 50 34 23 68 45 76 49 25 12 52 28 150 94 377 251 574 418 856 722
165 179 349 479 459 746 93 226 208 601 225 734 6 48 36 209 55 295 14 64 24
124 40 230 9 61 21 139 26 175 25 167 33 236 59 531 13 146 13 532 0 669 -5
58 -14 168 -20 245 -14 182 -35 354 -65 540 -9 55 -21 125 -25 155 -5 30 -13
80 -18 110 -38 212 -165 684 -197 727 -12 15 -13 15 -19 -3z m291 -1976 c-1
-51 -3 -12 -3 87 0 99 2 141 3 93 2 -48 2 -129 0 -180z m0 -305 c-2 -16 -4 -5
-4 22 0 28 2 40 4 28 2 -13 2 -35 0 -50z m-1172 -3173 c-3 -5 -12 -10 -18 -10
-7 0 -6 4 3 10 19 12 23 12 15 0z m-86 -73 c-2 -2 -38 -32 -80 -68 -129 -109
-195 -156 -205 -146 -5 5 76 71 135 109 25 17 38 27 111 87 19 16 37 27 39 25
2 -2 2 -5 0 -7z m-319 -248 c-57 -46 -112 -81 -108 -69 2 7 19 21 38 31 19 11
43 28 54 39 11 11 25 20 31 20 5 0 -1 -10 -15 -21z m-156 -114 c-25 -19 -40
-19 -24 0 7 8 20 15 28 15 13 0 12 -3 -4 -15z m-64 -45 c-33 -26 -48 -26 -25
0 10 11 25 20 34 20 12 0 9 -6 -9 -20z m-1122 -492 c-3 -7 -18 -14 -34 -16
-28 -3 -28 -3 -9 12 24 19 48 21 43 4z m-75 -35 c-7 -2 -19 -2 -25 0 -7 3 -2
5 12 5 14 0 19 -2 13 -5z m-83 -28 c-33 -19 -50 -18 -26 0 11 8 27 15 35 15
10 -1 7 -6 -9 -15z m-172 -10 c-11 -12 -68 -23 -73 -15 -5 8 15 13 64 19 8 0
12 -1 9 -4z m-95 -32 c-7 -2 -19 -2 -25 0 -7 3 -2 5 12 5 14 0 19 -2 13 -5z
m-56 -19 c-3 -3 -12 -4 -19 -1 -8 3 -5 6 6 6 11 1 17 -2 13 -5z m-960 -330
c-3 -3 -12 -4 -19 -1 -8 3 -5 6 6 6 11 1 17 -2 13 -5z"/>
<path d="M44346 15242 c-2 -4 -1 -14 5 -22 7 -12 9 -10 9 8 0 23 -5 28 -14 14z"/>
<path d="M44371 15154 c0 -11 3 -14 6 -6 3 7 2 16 -1 19 -3 4 -6 -2 -5 -13z"/>
<path d="M44421 14985 c0 -11 6 -31 14 -45 13 -22 14 -23 14 -5 0 11 -6 31
-14 45 -13 22 -14 23 -14 5z"/>
<path d="M44488 14735 c-3 -5 -9 -37 -12 -70 -6 -57 -6 -58 7 -30 l14 30 6
-45 c7 -64 22 -117 29 -105 5 10 -13 127 -25 155 -3 8 -7 29 -9 45 -2 17 -6
26 -10 20z"/>
<path d="M41936 14601 c-8 -13 2 -17 59 -25 116 -15 264 -49 312 -71 29 -13
73 -40 97 -60 24 -19 48 -35 54 -35 23 0 42 -45 42 -100 0 -116 -56 -244 -137
-316 -21 -19 -37 -42 -38 -59 -2 -15 -7 -31 -12 -34 -5 -3 -30 -21 -55 -38
-26 -18 -51 -33 -57 -33 -6 0 -11 -4 -11 -10 0 -5 -13 -16 -29 -24 -16 -9 -31
-24 -34 -36 -3 -11 -13 -23 -24 -26 -28 -9 -71 -30 -158 -80 -44 -24 -98 -53
-120 -63 -85 -39 -382 -188 -429 -216 -27 -16 -44 -31 -37 -33 13 -4 19 -1
218 94 73 35 136 64 139 64 12 0 245 120 281 145 21 14 43 25 50 25 7 0 30 15
51 34 21 19 67 48 103 65 103 49 186 114 292 230 52 58 62 55 20 -6 -48 -69
-66 -87 -155 -159 -119 -95 -162 -125 -243 -171 -38 -22 -114 -65 -167 -97
-53 -31 -101 -56 -106 -56 -6 0 -12 -7 -16 -15 -3 -8 -12 -15 -20 -15 -7 0
-17 -7 -20 -16 -3 -8 -10 -13 -14 -10 -5 3 -24 -5 -43 -18 -54 -37 -144 -76
-173 -76 -15 0 -71 -22 -124 -49 -99 -49 -166 -69 -176 -52 -4 5 1 17 10 25
22 22 -1 20 -34 -2 -15 -10 -49 -29 -77 -42 -27 -13 -60 -32 -72 -43 -12 -11
-33 -21 -46 -22 -14 -2 -35 -8 -47 -15 -31 -17 -21 -57 35 -136 l45 -63 -25
-3 -26 -3 31 -37 c42 -50 219 -157 375 -226 127 -56 197 -84 390 -157 393
-148 530 -226 852 -490 66 -55 156 -127 199 -160 80 -61 109 -85 198 -165 28
-25 67 -58 86 -72 20 -14 52 -41 71 -59 20 -19 68 -65 108 -103 50 -46 76 -65
83 -58 7 7 3 20 -12 42 -29 41 -309 283 -510 442 -69 54 -165 134 -215 180
-99 89 -141 124 -192 161 -32 23 -67 50 -78 60 -43 39 -266 156 -405 211 -154
62 -181 75 -154 76 11 0 24 -3 28 -7 7 -7 57 -26 128 -49 26 -8 50 -19 53 -24
3 -6 13 -10 21 -10 22 0 229 -104 269 -134 19 -14 36 -26 40 -26 8 0 119 -71
125 -80 3 -4 23 -19 46 -33 22 -14 67 -49 100 -77 32 -29 75 -63 94 -75 19
-13 53 -40 75 -60 22 -21 61 -51 87 -67 27 -16 51 -35 55 -42 5 -7 44 -41 88
-76 44 -36 82 -67 85 -70 3 -3 39 -34 80 -68 41 -35 117 -104 168 -154 93 -92
116 -103 64 -32 -35 47 -101 109 -202 189 -41 33 -94 77 -118 99 -24 22 -62
54 -86 71 -23 16 -49 37 -58 45 -8 8 -33 29 -54 45 -40 31 -105 86 -114 95
-25 28 -270 226 -335 272 -111 77 -578 298 -630 298 -9 0 -34 8 -58 19 -60 26
-233 100 -292 124 -103 42 -117 49 -203 106 -106 70 -157 124 -143 150 23 42
159 123 421 251 431 209 614 309 734 401 131 100 258 234 300 317 47 91 39
204 -24 330 -59 117 -160 222 -160 167 0 -12 -6 -10 -26 8 -33 31 -160 74
-242 82 -97 11 -113 13 -168 20 -35 5 -54 4 -58 -4z m-750 -1716 c25 -19 14
-19 -22 0 -16 8 -22 15 -13 15 8 0 24 -7 35 -15z m116 -55 c15 -11 34 -20 43
-20 8 0 15 -3 15 -8 0 -10 75 -42 98 -42 9 0 30 -11 46 -25 36 -31 31 -31 -41
0 -32 14 -70 31 -85 38 -16 6 -28 15 -28 19 0 5 -6 8 -12 8 -7 0 -40 14 -73
31 -52 27 -55 30 -25 25 19 -4 47 -15 62 -26z m311 -144 c18 -8 39 -17 47 -19
13 -5 13 -6 -1 -6 -8 -1 -33 8 -55 19 -45 22 -38 27 9 6z m112 -42 c11 -4 22
-8 25 -9 29 -7 51 -18 47 -22 -7 -7 -117 29 -117 39 0 7 9 6 45 -8z"/>
<path d="M44492 14520 c0 -19 2 -27 5 -17 2 9 2 25 0 35 -3 9 -5 1 -5 -18z"/>
<path d="M41730 14514 c-91 -15 -206 -47 -257 -70 -17 -8 -36 -14 -42 -14 -7
0 -67 -25 -134 -56 -102 -47 -207 -113 -287 -182 -8 -7 -30 -24 -47 -38 -32
-25 -42 -44 -24 -44 5 0 31 19 57 43 66 59 250 163 414 235 65 28 250 79 354
97 127 22 251 19 378 -9 59 -13 119 -31 132 -40 14 -9 31 -16 38 -16 20 0 120
-86 137 -117 15 -27 16 -27 19 -6 4 26 -38 91 -76 120 -44 32 -105 61 -188 88
-69 23 -91 25 -233 24 -86 -1 -194 -7 -241 -15z"/>
<path d="M44530 14489 c0 -31 13 -79 21 -79 14 0 10 55 -6 76 -12 16 -14 16
-15 3z"/>
<path d="M20399 14453 c-10 -12 -13 -45 -11 -127 2 -121 -12 -224 -53 -376
-44 -160 -64 -321 -81 -642 -5 -84 -9 -108 -21 -113 -14 -5 -15 9 -10 122 7
132 20 253 37 358 6 33 17 103 25 155 8 52 22 117 30 144 37 121 66 429 42
452 -11 11 -57 -6 -57 -21 0 -8 -6 -12 -14 -9 -18 7 -42 -30 -51 -78 -4 -21
-11 -38 -15 -38 -26 0 -220 -225 -393 -455 -153 -203 -313 -441 -397 -590 -13
-22 -32 -56 -43 -75 -10 -19 -36 -65 -57 -101 -32 -53 -160 -310 -206 -410 -6
-13 -27 -55 -47 -94 -20 -38 -37 -76 -37 -82 0 -7 -4 -13 -10 -13 -5 0 -11
-12 -11 -27 -2 -26 -2 -26 -6 -4 -3 13 0 28 6 34 6 6 11 17 11 24 0 23 -15 14
-29 -19 -8 -18 -27 -60 -42 -93 -15 -33 -45 -103 -67 -155 -22 -52 -53 -124
-70 -160 -16 -36 -53 -123 -82 -195 -29 -71 -87 -203 -130 -292 -43 -90 -81
-176 -85 -193 -6 -26 -4 -30 14 -30 18 0 20 -4 14 -31 -6 -31 -5 -31 26 -24
29 6 31 5 31 -20 0 -14 4 -24 9 -20 5 3 12 1 16 -5 9 -15 78 23 109 61 15 18
46 69 68 113 22 45 62 110 88 146 60 83 107 152 146 215 17 28 54 88 83 135
76 122 197 334 276 485 102 195 222 420 256 481 10 18 32 59 49 93 34 64 56
72 45 15 -3 -20 -2 -34 4 -34 5 0 18 -17 28 -37 11 -22 35 -47 61 -63 23 -14
55 -45 70 -70 32 -51 99 -201 142 -317 28 -76 164 -428 180 -468 45 -109 110
-310 109 -337 -1 -20 -2 -20 -6 -3 -2 11 -8 29 -13 40 -4 11 -16 45 -26 75 -9
30 -24 70 -32 89 -8 18 -18 45 -22 60 -24 79 -71 196 -80 199 -5 2 -10 9 -10
17 0 7 -7 19 -16 26 -15 12 -16 10 -9 -21 4 -19 21 -71 36 -115 16 -44 51
-154 78 -245 98 -330 142 -457 193 -558 29 -56 63 -115 76 -130 l23 -27 -5 34
c-6 34 -6 34 14 16 11 -10 30 -34 41 -52 14 -22 28 -33 43 -33 29 0 60 34 52
55 -3 9 3 25 15 38 12 13 18 30 15 42 -2 11 -9 39 -15 63 -6 23 -27 76 -45
116 -35 75 -84 213 -107 296 -9 36 -13 41 -19 26 -6 -19 -7 -18 -15 5 -9 26
-21 79 -34 149 -5 25 -18 78 -30 117 -11 40 -21 88 -21 107 0 19 -4 37 -9 40
-8 5 -18 91 -26 221 -2 33 -11 107 -19 163 -19 123 -38 393 -31 441 2 18 10
40 17 49 12 14 172 96 234 120 16 6 56 23 89 37 33 14 132 54 220 89 458 183
530 206 895 291 295 69 308 72 405 100 163 47 563 145 865 211 41 9 88 21 104
25 16 5 40 9 52 9 15 0 24 6 24 15 0 8 -4 15 -10 15 -5 0 -10 5 -10 10 0 6 17
1 37 -10 21 -11 54 -20 74 -20 46 0 104 24 114 47 13 29 15 136 3 150 -6 7
-35 20 -65 29 -30 9 -76 25 -101 36 -43 19 -52 20 -151 8 -94 -11 -108 -15
-134 -41 -17 -17 -27 -36 -23 -44 4 -10 -5 -19 -28 -29 -46 -19 -678 -175
-1141 -282 -137 -31 -281 -67 -320 -80 -38 -12 -90 -27 -115 -34 -25 -6 -61
-17 -80 -24 -19 -8 -66 -24 -105 -36 -38 -13 -83 -29 -100 -36 -16 -7 -57 -22
-90 -32 -33 -11 -80 -27 -105 -37 -142 -54 -288 -112 -382 -151 -146 -60 -148
-60 -148 21 0 91 17 216 65 480 35 193 43 252 50 340 4 44 11 103 16 132 8 41
7 62 -6 100 -27 81 -24 78 -37 65 -16 -16 -28 -15 -28 2 0 23 -16 27 -31 9z
m-199 -367 c0 -2 -8 -10 -17 -17 -16 -13 -17 -12 -4 4 13 16 21 21 21 13z m30
-48 c0 -7 -5 -31 -10 -53 -5 -22 -13 -74 -19 -115 -5 -41 -16 -115 -25 -165
-23 -138 -35 -256 -42 -412 -4 -88 -11 -146 -18 -151 -16 -11 -137 -39 -231
-53 -44 -6 -88 -15 -97 -20 -27 -15 -23 13 11 74 130 233 220 420 231 476 11
59 -2 113 -22 93 -39 -39 -29 19 15 93 36 59 74 109 140 188 48 56 67 69 67
45z m-103 -40 c-8 -13 -23 -32 -34 -43 -10 -11 -32 -38 -48 -60 -17 -22 -36
-46 -42 -55 -7 -8 -28 -36 -45 -61 -18 -26 -78 -111 -134 -190 -102 -146 -221
-328 -266 -409 -33 -59 -94 -165 -124 -215 -13 -22 -56 -104 -95 -182 -39 -79
-73 -143 -76 -143 -7 0 7 42 34 100 14 30 31 66 37 80 6 14 13 27 16 30 14 14
42 80 38 90 -2 7 -17 -14 -34 -47 -79 -153 -109 -204 -112 -194 -5 16 144 305
201 390 22 33 32 40 39 30 6 -9 7 -5 3 12 -5 21 8 48 68 140 142 216 239 354
261 374 12 11 38 43 57 70 29 42 59 82 142 185 7 8 24 24 38 35 13 11 37 37
53 58 30 40 50 44 23 5z m-121 -13 c-9 -9 -16 -13 -16 -8 0 12 22 34 28 28 2
-2 -3 -11 -12 -20z m-42 -57 c-9 -18 -24 -40 -34 -48 -53 -48 -315 -436 -455
-675 -17 -27 -34 -58 -40 -67 -5 -10 -27 -50 -49 -90 -21 -40 -43 -79 -49 -86
-5 -7 -22 -36 -37 -65 -14 -29 -43 -83 -64 -121 -20 -39 -50 -99 -65 -135 -16
-37 -40 -91 -54 -121 -14 -30 -53 -122 -87 -205 -66 -159 -76 -184 -108 -255
-11 -25 -27 -64 -36 -87 -8 -23 -24 -61 -35 -85 -10 -24 -28 -68 -40 -98 -25
-63 -64 -135 -58 -105 7 31 137 376 166 440 10 22 22 51 26 65 8 28 90 215
105 242 6 10 10 22 10 27 0 5 16 44 35 85 19 42 35 80 35 84 0 11 99 202 120
232 17 24 29 45 104 183 102 188 146 260 272 451 62 94 117 176 121 181 5 6
26 35 48 65 47 65 174 220 181 220 2 0 -3 -15 -12 -32z m285 -35 c-10 -78 -30
-208 -39 -263 -6 -34 -8 -22 -5 45 2 50 8 113 14 140 5 28 13 69 17 93 10 63
21 51 13 -15z m2951 28 c0 -4 -11 -6 -25 -3 -14 2 -25 6 -25 8 0 2 11 4 25 4
14 0 25 -4 25 -9z m-738 -79 c13 -5 -1 -12 -45 -24 -110 -29 -220 -56 -322
-78 -55 -11 -125 -27 -155 -35 -30 -7 -87 -18 -126 -24 -39 -6 -88 -17 -110
-24 -21 -8 -57 -17 -79 -21 -22 -4 -60 -13 -85 -21 -25 -7 -92 -26 -150 -40
-58 -15 -130 -36 -160 -47 -30 -11 -70 -23 -88 -25 -18 -3 -35 -9 -38 -14 -3
-5 -12 -9 -21 -9 -15 0 -81 -27 -199 -82 -34 -15 -65 -28 -69 -28 -4 0 -21 -6
-38 -14 -106 -46 -288 -116 -304 -116 -24 1 10 20 108 58 41 17 99 41 129 55
87 40 209 87 226 87 8 0 25 7 37 14 22 15 98 43 247 92 179 58 229 73 300 89
41 9 104 23 140 31 132 29 289 66 425 101 139 35 175 44 290 68 72 16 66 15
87 7z m-2267 -459 c-4 -104 -12 -192 -17 -198 -7 -7 -8 46 -5 160 6 159 13
225 24 225 3 0 2 -84 -2 -187z m-382 90 c-3 -10 -9 -22 -13 -28 -4 -5 -38 -68
-75 -140 -122 -234 -156 -295 -166 -295 -5 0 -9 2 -9 4 0 8 108 214 134 254
14 23 26 44 26 46 0 2 20 39 45 80 25 42 45 81 45 86 0 6 4 10 10 10 5 0 7 -8
3 -17z m534 -85 c-3 -8 -6 -5 -6 6 -1 11 2 17 5 13 3 -3 4 -12 1 -19z m-50
-100 c-2 -24 -4 -7 -4 37 0 44 2 63 4 43 2 -21 2 -57 0 -80z m133 -73 c-34
-20 -60 -20 -34 0 10 8 28 14 39 14 18 0 17 -1 -5 -14z m-895 -388 c-54 -105
-117 -217 -140 -247 -23 -30 -50 -71 -60 -90 -10 -19 -23 -44 -28 -55 -6 -11
-28 -54 -50 -95 -51 -98 -116 -217 -139 -255 -33 -55 -19 -3 23 82 23 46 38
90 35 99 -3 8 -2 13 2 10 13 -8 36 18 63 69 15 28 47 86 73 130 25 44 46 85
46 92 0 6 3 13 8 15 4 2 25 37 46 78 22 41 52 99 67 127 63 120 113 209 127
226 38 44 18 -8 -73 -186z m724 -72 c1 -68 18 -235 31 -310 26 -140 32 -186
26 -192 -3 -3 -8 3 -12 13 -3 10 -14 37 -24 59 -10 22 -21 58 -25 80 -17 112
-17 111 -25 90 -8 -18 -9 -17 -9 6 -1 15 -12 47 -26 72 -23 40 -25 56 -26 162
0 107 3 136 15 124 6 -5 27 -146 36 -234 6 -60 7 -55 4 30 -2 55 -5 131 -7
168 -3 53 -1 72 12 85 15 14 17 11 23 -39 3 -30 6 -81 7 -114z m38 -12 c-2
-32 -3 -6 -3 57 0 63 1 89 3 58 2 -32 2 -84 0 -115z m-163 100 c10 -61 7 -145
-4 -138 -34 21 -3 -95 61 -230 15 -33 57 -136 93 -230 35 -93 83 -217 106
-275 23 -58 52 -148 66 -200 14 -52 31 -112 39 -133 8 -20 15 -50 15 -65 -1
-28 -16 7 -61 143 -11 33 -23 69 -28 80 -5 11 -18 49 -31 85 -12 36 -38 108
-57 160 -19 52 -50 137 -69 188 -18 51 -40 108 -47 125 -13 30 -40 97 -57 142
-4 11 -12 31 -18 45 -6 14 -27 70 -47 125 -21 55 -44 117 -53 138 -17 43 -19
39 33 60 54 21 52 22 59 -20z m-117 -85 c-3 -7 -5 -2 -5 12 0 14 2 19 5 13 2
-7 2 -19 0 -25z m-629 -61 c-9 -18 -56 -114 -105 -215 -48 -101 -90 -176 -91
-167 -4 18 198 428 207 420 3 -3 -2 -20 -11 -38z m693 -83 c6 -12 9 -30 7 -40
-3 -13 -9 -4 -18 26 -7 25 -17 50 -21 55 -3 6 -10 26 -13 45 -5 30 -3 27 14
-15 11 -27 25 -60 31 -71z m-854 44 c-3 -8 -6 -5 -6 6 -1 11 2 17 5 13 3 -3 4
-12 1 -19z m16 -70 c-9 -24 -24 -50 -32 -58 -16 -16 -15 -15 17 53 28 59 38
62 15 5z m1074 -15 c-3 -10 -5 -2 -5 17 0 19 2 27 5 18 2 -10 2 -26 0 -35z
m-1161 -78 c-27 -57 -40 -72 -27 -32 13 44 46 107 49 97 2 -6 -8 -35 -22 -65z
m1181 -47 c-2 -13 -4 -5 -4 17 -1 22 1 32 4 23 2 -10 2 -28 0 -40z m-1235 -80
c-11 -24 -27 -60 -35 -80 -9 -21 -18 -38 -21 -38 -6 0 14 57 45 128 13 30 25
49 27 44 2 -6 -6 -30 -16 -54z m1245 -30 c-3 -7 -5 -2 -5 12 0 14 2 19 5 13 2
-7 2 -19 0 -25z m23 -142 c-7 -7 -10 4 -9 30 1 39 1 39 10 9 5 -18 5 -33 -1
-39z m-1341 7 c0 -5 -4 -17 -9 -28 -8 -18 -9 -17 -9 8 -1 15 4 27 9 27 6 0 10
-3 9 -7z m-40 -97 c-9 -8 -10 -7 -5 7 3 10 7 24 7 30 1 7 3 4 6 -7 3 -10 -1
-23 -8 -30z m32 -27 c-5 -13 -10 -19 -10 -12 -1 15 10 45 15 40 3 -2 0 -15 -5
-28z m-54 -31 c-3 -8 -6 -5 -6 6 -1 11 2 17 5 13 3 -3 4 -12 1 -19z m-20 -50
c-3 -7 -5 -2 -5 12 0 14 2 19 5 13 2 -7 2 -19 0 -25z m36 -3 c-3 -9 -8 -14
-10 -11 -3 3 -2 9 2 15 9 16 15 13 8 -4z m1344 -57 c-3 -8 -6 -5 -6 6 -1 11 2
17 5 13 3 -3 4 -12 1 -19z m20 -65 c-3 -10 -5 -4 -5 12 0 17 2 24 5 18 2 -7 2
-21 0 -30z m20 -275 c-3 -7 -5 -2 -5 12 0 14 2 19 5 13 2 -7 2 -19 0 -25z m37
-117 c-7 -7 -24 50 -23 77 0 19 4 12 14 -23 7 -27 12 -52 9 -54z m33 -106 c-3
-15 -5 -13 -6 7 0 15 -5 30 -11 33 -5 3 -10 16 -10 28 1 17 4 15 16 -13 8 -19
13 -43 11 -55z m59 -132 c8 -17 14 -39 14 -50 -1 -27 -51 87 -56 127 l-5 35
17 -40 c9 -22 22 -54 30 -72z"/>
<path d="M41810 14453 c-250 -29 -595 -178 -785 -339 -109 -93 -304 -328 -305
-368 0 -11 41 34 81 89 45 61 221 235 238 235 8 0 -26 -42 -75 -92 -104 -107
-168 -189 -294 -378 -44 -67 -58 -90 -73 -122 -26 -54 -41 -60 -33 -12 7 39 7
39 -10 16 -11 -17 -15 -34 -10 -61 4 -25 1 -44 -9 -57 -14 -18 -14 -17 -15 11
0 29 0 29 -15 8 -20 -29 -33 -89 -17 -79 7 4 12 1 12 -9 0 -9 -4 -13 -10 -10
-5 3 -10 -1 -10 -9 0 -9 -4 -16 -8 -16 -12 0 -40 -53 -35 -67 2 -6 -7 -30 -21
-52 -14 -22 -26 -44 -26 -48 0 -5 -15 -25 -33 -46 -23 -25 -41 -64 -56 -115
-12 -42 -29 -93 -38 -112 -21 -48 -45 -157 -45 -200 0 -19 -2 -29 -5 -22 -8
20 -52 -54 -76 -129 -17 -50 -26 -66 -34 -58 -7 7 -12 -2 -17 -35 -4 -25 -14
-59 -22 -75 -21 -42 -40 -151 -28 -159 8 -7 26 -37 61 -104 17 -33 26 -34 69
-8 43 27 69 84 94 205 30 141 159 596 211 740 5 17 32 91 59 165 121 342 307
654 519 873 65 67 187 167 205 167 6 0 95 55 161 99 46 31 63 39 165 80 92 37
165 55 295 71 144 19 166 28 60 28 -49 -1 -106 -3 -125 -5z m-661 -316 c-2 -2
-21 -15 -42 -31 -21 -15 -41 -26 -44 -23 -2 3 14 19 38 36 23 17 44 29 47 26
3 -3 3 -6 1 -8z"/>
<path d="M44563 14350 c0 -25 2 -35 4 -22 2 12 2 32 0 45 -2 12 -4 2 -4 -23z"/>
<path d="M44521 14338 c0 -18 4 -42 9 -53 6 -15 9 -8 9 27 1 26 -3 50 -9 53
-6 4 -10 -7 -9 -27z"/>
<path d="M44545 14200 c3 -36 9 -96 14 -135 8 -66 9 -64 5 35 -2 58 -8 119
-14 135 -7 24 -8 17 -5 -35z"/>
<path d="M40898 14083 c7 -3 16 -2 19 1 4 3 -2 6 -13 5 -11 0 -14 -3 -6 -6z"/>
<path d="M39756 14063 c-3 -4 -6 -9 -6 -13 0 -15 76 -58 112 -64 21 -4 40 -12
44 -18 5 -8 -17 -9 -74 -6 -75 4 -85 8 -128 41 -45 35 -73 41 -57 12 11 -19
98 -77 156 -104 35 -16 52 -19 62 -11 21 18 443 -14 464 -35 3 -4 -12 -4 -34
-1 -22 3 -130 8 -240 11 -180 5 -197 4 -169 -9 17 -8 78 -18 135 -21 198 -13
419 -43 452 -63 30 -17 32 -22 35 -83 1 -35 -4 -88 -11 -116 -8 -29 -10 -53
-6 -53 5 0 9 8 10 18 0 9 17 43 37 74 20 32 61 96 91 144 29 47 64 98 77 112
39 44 44 51 44 57 0 3 -6 3 -12 -2 -7 -4 -33 -13 -57 -19 -43 -11 -45 -11 -68
17 -15 17 -35 29 -49 29 -13 0 -47 9 -76 20 -29 11 -93 24 -143 30 -192 20
-475 41 -483 36 -5 -3 -29 1 -54 9 -26 7 -49 11 -52 8z m534 -117 c8 -2 -13
-4 -48 -5 -35 0 -61 3 -58 7 4 7 70 6 106 -2z m137 -92 c-3 -3 -12 -4 -19 -1
-8 3 -5 6 6 6 11 1 17 -2 13 -5z"/>
<path d="M44600 14028 c0 -53 12 -108 21 -102 17 10 6 134 -12 134 -5 0 -9
-15 -9 -32z"/>
<path d="M32356 13978 c-8 -13 -16 -48 -18 -78 -2 -44 1 -61 20 -87 12 -17 22
-36 22 -41 0 -13 54 -32 90 -32 29 0 70 36 70 62 0 9 7 18 15 22 9 3 15 19 15
41 0 48 -48 100 -85 91 -18 -5 -31 1 -49 19 -31 31 -61 32 -80 3z"/>
<path d="M44576 13959 c-4 -9 -3 -60 3 -113 6 -52 11 -128 11 -168 0 -40 4
-80 10 -88 18 -29 21 15 10 136 -19 201 -26 250 -34 233z"/>
<path d="M17552 13914 c-13 -15 -22 -34 -20 -43 1 -9 0 -20 -3 -26 -13 -22 20
-73 56 -86 52 -19 58 -62 31 -199 -10 -47 -22 -105 -26 -130 -5 -25 -13 -65
-18 -90 -29 -139 -46 -227 -63 -330 -10 -63 -25 -155 -34 -205 -28 -158 -40
-239 -74 -490 -20 -150 -42 -294 -62 -410 -5 -27 -18 -119 -29 -204 -12 -84
-28 -167 -37 -184 -8 -17 -20 -60 -25 -96 -5 -36 -12 -85 -15 -109 -3 -25 -10
-41 -17 -39 -13 4 -119 232 -171 367 -87 224 -133 361 -186 545 -5 17 -17 59
-28 95 -11 36 -29 99 -40 140 -54 204 -193 617 -223 667 -11 18 -36 40 -55 50
-35 16 -37 16 -51 -5 l-14 -21 -41 20 c-38 20 -42 20 -68 5 -38 -22 -43 -21
-83 22 -32 34 -37 36 -57 24 -18 -12 -23 -12 -30 0 -5 7 -9 17 -9 21 0 4 -24
7 -52 6 -29 -2 -80 1 -113 5 -58 7 -61 6 -81 -21 -34 -46 -36 -72 -8 -109 20
-25 38 -36 80 -45 36 -8 56 -18 59 -30 6 -18 0 -77 -31 -334 -23 -192 -39
-280 -83 -445 -63 -242 -107 -383 -165 -535 -71 -183 -119 -318 -215 -597 -22
-65 -45 -127 -52 -139 -54 -102 -198 -604 -179 -623 6 -6 10 -22 10 -36 0 -34
42 -77 57 -58 6 7 12 20 15 27 3 12 6 12 11 -2 3 -9 2 -17 -3 -17 -4 0 -2 -13
6 -30 18 -35 22 -36 67 -10 43 25 67 69 121 221 24 68 58 160 75 204 17 44 52
147 77 230 164 541 318 986 410 1191 30 67 129 321 195 502 29 78 58 142 65
142 36 0 70 -85 172 -435 28 -93 62 -201 77 -240 14 -38 41 -115 60 -170 54
-161 106 -291 201 -495 74 -161 245 -499 255 -506 5 -3 9 -12 9 -21 0 -8 9
-27 20 -43 38 -53 149 -47 180 9 16 31 40 156 50 266 17 168 50 454 65 565 16
110 38 312 55 490 5 58 14 132 20 165 5 33 14 96 20 140 6 44 17 114 25 155 8
41 24 140 35 220 23 150 44 266 80 430 12 52 25 115 30 140 5 25 17 77 25 115
18 81 32 155 45 240 8 54 7 62 -13 83 -17 19 -19 25 -8 32 12 7 12 13 -3 35
-26 40 -60 51 -91 31 -19 -12 -30 -14 -44 -6 -11 5 -28 10 -38 10 -10 0 -31 7
-47 15 -15 8 -29 15 -30 15 0 0 -11 -12 -24 -26z m224 -281 c-3 -16 -8 -48
-12 -73 -3 -25 -12 -70 -20 -100 -12 -47 -34 -158 -75 -375 -5 -27 -13 -75
-18 -105 -6 -30 -19 -104 -30 -165 -10 -60 -22 -126 -24 -145 -3 -19 -13 -82
-22 -140 -8 -58 -20 -136 -26 -175 -6 -38 -14 -95 -19 -125 -5 -30 -16 -113
-24 -185 -8 -71 -20 -166 -26 -210 -6 -44 -15 -111 -20 -150 -34 -274 -36
-289 -49 -281 -5 3 -11 -20 -14 -52 -9 -83 -43 -271 -52 -280 -8 -7 -4 40 14
153 5 39 17 124 26 190 9 66 20 152 26 190 5 39 14 108 19 155 13 121 28 267
35 325 3 28 10 86 15 130 5 44 12 96 15 115 7 37 42 249 56 335 10 62 23 134
44 245 9 47 20 108 25 135 5 28 18 93 30 145 45 194 72 316 79 360 11 59 31
110 43 110 5 0 7 -12 4 -27z m-111 -63 c-14 -68 -31 -151 -45 -210 -4 -19 -14
-62 -20 -95 -7 -33 -17 -64 -23 -70 -6 -7 -7 2 -3 25 4 19 11 60 15 90 8 55
58 303 67 329 3 9 8 11 13 5 5 -5 4 -37 -4 -74z m-1627 -402 c-6 -18 -28 -21
-28 -4 0 9 7 16 16 16 9 0 14 -5 12 -12z m1522 -85 c-11 -17 -11 -17 -6 0 3
10 7 33 8 50 l1 32 4 -32 c2 -18 -1 -41 -7 -50z m-13 -70 c-3 -10 -5 -2 -5 17
0 19 2 27 5 18 2 -10 2 -26 0 -35z m-20 -100 c-3 -10 -5 -4 -5 12 0 17 2 24 5
18 2 -7 2 -21 0 -30z m-805 -618 c3 -14 1 -25 -3 -25 -5 0 -9 11 -9 25 0 14 2
25 4 25 2 0 6 -11 8 -25z m15 -72 c-3 -10 -5 -4 -5 12 0 17 2 24 5 18 2 -7 2
-21 0 -30z m-610 -45 c-3 -8 -6 -5 -6 6 -1 11 2 17 5 13 3 -3 4 -12 1 -19z
m632 -5 c0 -25 -1 -26 -9 -8 -12 27 -12 35 0 35 6 0 10 -12 9 -27z m-714 -233
c-24 -46 -32 -28 -9 20 10 21 20 33 22 25 2 -7 -4 -28 -13 -45z m-35 -80 c-7
-16 -16 -30 -20 -30 -4 0 0 16 8 35 19 42 30 38 12 -5z m1377 -42 c-2 -13 -4
-3 -4 22 0 25 2 35 4 23 2 -13 2 -33 0 -45z m-1401 -25 c-10 -10 -19 5 -10 18
6 11 8 11 12 0 2 -7 1 -15 -2 -18z m-16 -38 c0 -8 -4 -15 -10 -15 -5 0 -10 7
-10 15 0 8 5 15 10 15 6 0 10 -7 10 -15z m-193 -447 c-3 -8 -6 -5 -6 6 -1 11
2 17 5 13 3 -3 4 -12 1 -19z m-70 -190 c-3 -8 -6 -5 -6 6 -1 11 2 17 5 13 3
-3 4 -12 1 -19z m-300 -700 c-3 -7 -5 -2 -5 12 0 14 2 19 5 13 2 -7 2 -19 0
-25z"/>
<path d="M15105 13802 c-33 -15 -100 -48 -150 -73 -49 -26 -124 -61 -165 -79
-269 -117 -538 -259 -742 -392 -78 -52 -174 -111 -213 -132 -73 -40 -135 -91
-135 -112 0 -6 9 -14 20 -17 14 -3 18 -10 14 -22 -9 -23 44 -77 68 -69 11 3
25 0 33 -6 25 -21 134 21 194 74 46 42 257 186 381 261 52 32 263 140 468 241
410 202 465 234 460 267 -2 14 -11 23 -26 25 -12 2 -30 15 -39 29 -13 20 -23
24 -50 21 -18 -2 -33 0 -33 4 0 14 -23 8 -85 -20z"/>
<path d="M35877 13732 c-9 -10 -23 -34 -31 -54 -16 -36 -40 -63 -34 -36 3 15
-8 19 -32 10 -21 -8 -60 -51 -60 -66 0 -8 -15 -27 -32 -43 -18 -15 -49 -51
-70 -78 -20 -28 -46 -59 -58 -70 -39 -35 -94 -127 -192 -315 -63 -123 -167
-351 -299 -660 -128 -298 -140 -322 -180 -386 -38 -60 -101 -114 -148 -129
-48 -15 -127 96 -196 273 -70 182 -115 394 -155 727 -35 293 -53 367 -112 469
-54 92 -88 126 -127 126 -17 0 -51 7 -77 16 -49 16 -83 13 -107 -10 -7 -8 -38
-26 -68 -41 -53 -27 -132 -85 -156 -115 -18 -22 -16 -34 2 -16 18 18 54 30 63
21 3 -3 -12 -23 -35 -43 -52 -47 -121 -131 -167 -204 -42 -66 -47 -92 -11 -58
14 13 25 29 25 36 0 6 7 14 15 18 8 3 15 4 15 2 0 -2 -18 -36 -39 -77 -22 -41
-47 -90 -56 -109 -16 -33 -25 -52 -46 -90 -23 -41 -79 -173 -79 -185 0 -8 -4
-17 -10 -20 -5 -3 -10 -16 -10 -29 0 -12 -4 -26 -8 -31 -4 -6 -20 -48 -35 -95
-69 -217 -75 -235 -76 -208 -1 15 3 37 8 50 5 13 17 50 27 83 10 33 22 64 26
70 4 5 8 18 8 30 0 12 4 25 9 30 4 6 14 33 21 60 7 28 19 64 26 80 14 32 54
151 54 160 0 13 -18 3 -24 -12 -3 -10 -19 -49 -35 -88 -21 -49 -30 -63 -30
-45 -1 15 3 30 7 35 9 11 32 85 32 104 0 6 -5 11 -11 11 -22 0 -62 -59 -86
-126 -28 -80 -83 -317 -82 -354 0 -24 1 -24 16 8 14 26 33 43 33 28 0 -14 -44
-178 -55 -209 -17 -41 -21 -127 -6 -111 5 5 11 20 14 34 4 21 4 20 6 -7 0 -17
-3 -35 -9 -38 -5 -3 -10 -22 -10 -41 0 -19 -4 -34 -9 -34 -5 0 -11 -17 -14
-37 -3 -21 -12 -69 -20 -108 -22 -101 -44 -227 -57 -330 -26 -205 -41 -329
-55 -480 -9 -88 -23 -180 -31 -205 -14 -46 -19 -166 -8 -232 4 -23 13 -38 24
-41 10 -3 21 -18 25 -35 7 -35 41 -82 58 -82 20 0 87 83 92 115 3 17 2 96 -3
177 -8 142 -6 192 18 433 38 384 76 598 180 1005 58 231 95 349 168 531 112
280 187 412 294 516 51 49 71 62 106 68 41 7 44 5 87 -42 25 -26 49 -61 55
-78 5 -16 27 -138 49 -270 41 -246 45 -267 87 -443 29 -119 105 -345 142 -417
51 -103 102 -166 148 -187 44 -19 51 -38 13 -38 -10 0 -19 -4 -19 -10 0 -13
34 -30 62 -30 31 0 66 -24 50 -34 -53 -32 100 -63 175 -35 53 20 104 62 157
133 58 78 189 331 241 466 31 82 121 299 207 500 58 135 120 258 191 380 50
84 85 128 178 221 64 64 134 126 157 138 39 20 42 24 42 62 0 52 -24 97 -55
105 -14 3 -25 10 -25 14 0 11 -29 40 -39 40 -4 0 -15 -8 -24 -18z m-1661 -299
c-7 -7 -26 7 -26 19 0 6 6 6 15 -2 9 -7 13 -15 11 -17z m-476 -227 c0 -2 -7
-6 -15 -10 -8 -3 -15 -1 -15 4 0 6 7 10 15 10 8 0 15 -2 15 -4z m-103 -290
c-88 -169 -182 -419 -266 -711 -46 -157 -69 -243 -81 -290 -39 -165 -65 -221
-55 -115 8 78 44 231 85 358 17 50 40 131 51 179 11 48 26 103 34 122 7 20 19
56 26 81 7 25 23 65 35 90 12 25 27 62 34 83 6 20 16 37 21 37 5 0 9 8 9 18 0
10 4 22 9 28 4 5 30 50 56 99 61 114 98 170 103 156 2 -6 -26 -67 -61 -135z
m-320 -448 c-3 -8 -6 -5 -6 6 -1 11 2 17 5 13 3 -3 4 -12 1 -19z m-20 -50 c-3
-8 -6 -5 -6 6 -1 11 2 17 5 13 3 -3 4 -12 1 -19z m-30 -260 c-3 -8 -6 -5 -6 6
-1 11 2 17 5 13 3 -3 4 -12 1 -19z"/>
<path d="M40677 13687 c-15 -17 -27 -37 -27 -43 0 -6 -7 -18 -16 -25 -14 -12
-54 -90 -54 -106 0 -2 12 10 27 29 15 18 30 35 33 38 11 11 72 132 68 135 -2
3 -16 -10 -31 -28z"/>
<path d="M37608 13678 c-9 -7 -26 -36 -38 -65 l-22 -52 20 -26 c25 -31 18 -66
-39 -210 -23 -55 -58 -144 -79 -197 -70 -175 -83 -307 -43 -432 23 -71 80
-165 109 -178 13 -6 24 -14 24 -18 0 -4 16 -11 35 -14 19 -4 35 -12 35 -18 0
-6 -9 -8 -22 -3 -13 4 -36 9 -52 12 l-29 6 23 -38 c16 -26 19 -39 11 -44 -36
-23 183 -140 310 -167 162 -34 410 -17 609 42 47 14 110 32 140 40 88 25 108
31 245 75 160 50 369 102 495 124 127 21 182 34 196 46 17 14 11 97 -9 120 -9
10 -17 28 -17 38 0 53 -60 65 -135 27 -26 -14 -66 -28 -89 -31 -124 -20 -443
-107 -697 -190 -268 -88 -361 -102 -524 -80 -16 2 -66 6 -110 10 -274 22 -385
118 -385 334 0 62 6 110 21 157 23 73 62 159 78 168 5 4 31 -15 58 -42 46 -46
52 -49 153 -70 197 -42 348 -23 564 70 97 42 160 85 249 169 70 67 77 78 77
112 0 22 -6 51 -14 65 -7 15 -22 44 -32 65 -11 21 -22 41 -26 43 -16 10 -49
-18 -55 -46 -3 -18 -27 -49 -63 -82 -59 -55 -125 -85 -325 -151 -153 -50 -250
-54 -364 -13 -58 21 -121 21 -121 0 0 -21 -34 -14 -38 9 -2 9 9 43 23 74 32
69 44 189 26 246 -12 36 -19 41 -52 38 -8 -1 -22 11 -29 26 -31 62 -59 77 -92
51z m305 -487 c10 -11 6 -12 -23 -7 -19 4 -50 10 -67 13 -54 9 -37 19 22 13
30 -3 61 -12 68 -19z m-13 -83 c17 -5 8 -7 -29 -3 -30 2 -59 9 -65 16 -12 11
45 4 94 -13z m1414 -455 c9 -9 -69 -33 -108 -33 -35 0 -277 -62 -366 -94 -201
-71 -289 -94 -217 -56 20 11 40 19 44 18 5 -1 44 15 88 36 158 76 357 128 516
135 20 0 39 -2 43 -6z m-6 -80 c-10 -2 -28 -2 -40 0 -13 2 -5 4 17 4 22 1 32
-1 23 -4z m-153 -28 c-33 -7 -80 -20 -105 -29 -25 -9 -54 -16 -65 -16 -12 0
-25 -4 -30 -8 -6 -5 -50 -21 -100 -37 -75 -23 -212 -67 -393 -126 -19 -6 -36
-9 -38 -6 -6 6 100 47 121 47 14 0 35 8 102 36 17 8 40 14 50 14 10 0 23 4 29
8 9 9 177 65 289 97 33 9 71 20 85 25 14 5 45 8 70 8 l45 0 -60 -13z m-1445
-105 c22 -7 21 -8 -12 -9 -20 -1 -40 4 -43 9 -7 12 19 12 55 0z m870 2 c0 -9
-58 -32 -81 -32 -15 0 29 26 58 33 10 3 19 5 21 6 1 0 2 -3 2 -7z m-751 -28
c2 -2 -15 -4 -38 -4 -25 0 -40 4 -36 10 5 8 63 3 74 -6z m44 -1 c-7 -2 -19 -2
-25 0 -7 3 -2 5 12 5 14 0 19 -2 13 -5z m-58 -72 c-6 -6 -25 -6 -45 -1 l-35 8
45 1 c27 1 40 -3 35 -8z m575 -32 c-14 -6 -45 -14 -70 -19 -25 -5 -54 -12 -65
-15 -20 -7 -20 -6 -1 9 11 9 37 16 57 16 21 0 41 5 44 10 3 6 18 10 33 9 l27
0 -25 -10z"/>
<path d="M44773 13355 c0 -33 2 -45 4 -27 2 18 2 45 0 60 -2 15 -4 0 -4 -33z"/>
<path d="M44609 13338 c-1 -27 -1 -55 -1 -63 0 -8 0 -39 1 -67 3 -82 20 -29
20 62 0 88 -16 144 -20 68z"/>
<path d="M44770 13115 c-3 -60 -4 -112 -2 -114 9 -16 12 21 10 115 l-3 109 -5
-110z"/>
<path d="M44606 13089 c-12 -57 -17 -187 -7 -193 14 -9 31 59 31 129 0 67 -15
107 -24 64z"/>
<path d="M29969 13011 c-20 -20 -44 -51 -53 -68 -8 -17 -26 -35 -38 -38 -38
-11 -157 -85 -258 -158 -95 -70 -290 -258 -290 -280 0 -7 11 -1 24 13 13 14
44 42 68 62 23 20 66 58 93 83 41 39 106 83 105 73 0 -2 -73 -77 -161 -168
-99 -101 -169 -182 -182 -208 l-20 -44 29 -56 c28 -55 33 -59 132 -108 94 -47
161 -94 220 -151 13 -13 20 -23 16 -23 -3 0 -1 -7 6 -15 7 -8 19 -15 27 -15 7
0 26 -11 40 -24 14 -14 46 -35 70 -47 23 -12 43 -26 43 -30 0 -5 6 -6 13 -3 7
2 27 -13 45 -35 17 -21 64 -61 104 -88 40 -27 100 -69 133 -93 59 -45 120 -60
137 -36 4 5 20 3 41 -7 19 -10 41 -17 49 -17 8 0 18 -4 24 -9 5 -4 32 -14 59
-21 28 -7 57 -19 66 -27 9 -8 20 -13 25 -11 9 3 14 -5 14 -23 0 -8 -4 -8 -12
-2 -7 6 -26 13 -42 17 -17 4 -42 16 -57 27 -15 10 -34 19 -42 19 -8 0 -28 7
-43 15 -39 20 -61 20 -40 0 8 -8 17 -15 20 -15 3 0 38 -15 78 -34 40 -19 111
-46 158 -61 47 -15 90 -31 95 -35 13 -10 62 -18 200 -32 95 -10 122 -9 194 6
46 9 96 25 111 36 16 11 36 20 46 20 39 0 -24 -38 -107 -66 -110 -35 -264 -37
-413 -5 -55 11 -101 19 -103 18 -4 -5 63 -32 112 -46 94 -25 168 -33 314 -34
141 -1 162 1 221 22 89 32 150 69 160 97 6 16 5 37 -5 64 -24 69 -75 127 -75
87 0 -26 -67 -74 -150 -107 -77 -30 -98 -34 -214 -38 -168 -6 -337 21 -364 59
-7 10 -84 54 -172 99 -147 74 -183 94 -265 150 -66 44 9 16 165 -64 328 -167
531 -226 707 -206 70 8 181 45 170 56 -2 3 -28 -1 -58 -7 -70 -15 -266 -6
-339 16 -98 30 -241 94 -420 187 -96 51 -206 108 -245 128 -79 41 -118 63
-125 70 -10 10 -173 123 -215 150 -17 11 -44 37 -60 59 -17 22 -47 50 -67 62
l-38 23 3 73 c1 47 -2 76 -10 84 -7 7 -13 21 -13 31 0 14 -8 18 -32 18 -18 0
-50 5 -70 11 -30 8 -38 15 -38 33 0 13 9 31 21 42 12 10 31 33 42 49 19 27 17
26 -24 -10 -48 -42 -138 -138 -152 -161 -5 -9 -3 -14 6 -14 17 0 41 -50 30
-61 -8 -8 -75 21 -97 41 -4 5 1 13 13 19 12 7 21 17 21 22 0 22 116 154 165
190 22 15 60 47 85 69 25 23 77 62 115 88 39 25 72 49 75 52 3 4 16 11 30 15
14 4 43 15 65 25 76 33 82 33 101 3 10 -15 20 -30 22 -33 1 -2 7 2 11 9 6 9
12 -3 20 -38 16 -73 14 -121 -8 -209 -11 -43 -26 -129 -35 -192 -22 -165 -23
-180 -15 -180 11 0 37 90 49 170 6 36 19 92 29 125 30 95 51 214 55 309 2 48
6 89 9 92 15 16 32 -413 17 -449 -5 -12 -16 -67 -25 -122 -9 -55 -21 -111 -25
-125 -20 -63 -53 -239 -47 -254 10 -27 32 -13 34 20 1 30 41 217 68 324 55
215 85 410 85 555 0 96 -20 197 -40 203 -7 3 -21 13 -31 23 -24 24 -36 24 -49
-1 -14 -27 -28 -25 -52 5 -11 14 -22 25 -26 24 -4 0 -23 -17 -43 -38z m-280
-271 c-36 -30 -59 -43 -59 -31 0 12 72 63 78 56 3 -2 -6 -14 -19 -25z m281
-910 c0 -5 -2 -10 -4 -10 -3 0 -8 5 -11 10 -3 6 -1 10 4 10 6 0 11 -4 11 -10z
m47 -26 c-3 -3 -12 -4 -19 -1 -8 3 -5 6 6 6 11 1 17 -2 13 -5z m53 -34 c33
-26 14 -26 -25 0 -16 11 -23 20 -15 20 8 0 26 -9 40 -20z"/>
<path d="M33550 13005 c-6 -8 -10 -19 -8 -26 2 -6 9 0 16 15 13 29 10 33 -8
11z"/>
<path d="M29845 12966 c-16 -7 -25 -15 -20 -18 16 -9 76 3 72 15 -5 16 -19 17
-52 3z"/>
<path d="M41000 12870 c30 -56 222 -166 451 -259 46 -19 103 -43 126 -53 23
-10 45 -18 48 -18 4 0 21 -6 38 -14 18 -7 100 -39 182 -71 337 -130 436 -191
790 -484 44 -36 96 -78 115 -93 19 -15 47 -37 61 -50 15 -13 57 -48 94 -78
143 -116 342 -289 395 -344 53 -54 80 -69 80 -44 0 21 -152 160 -406 373 -138
115 -270 226 -294 245 -24 19 -83 67 -130 105 -244 202 -399 291 -690 400 -69
26 -138 53 -155 60 -16 7 -64 25 -105 40 -252 93 -533 234 -579 289 -19 23
-34 20 -21 -4z"/>
<path d="M44751 12824 c0 -11 3 -14 6 -6 3 7 2 16 -1 19 -3 4 -6 -2 -5 -13z"/>
<path d="M29696 12675 c-16 -12 -17 -15 -4 -15 9 0 18 7 22 15 7 18 6 18 -18
0z"/>
<path d="M29585 12580 c-3 -5 -1 -10 4 -10 6 0 11 5 11 10 0 6 -2 10 -4 10 -3
0 -8 -4 -11 -10z"/>
<path d="M13660 12565 c0 -8 -9 -24 -21 -36 -11 -11 -29 -44 -39 -72 -10 -29
-19 -44 -19 -34 -1 10 6 34 14 54 8 19 15 44 15 54 0 21 -20 25 -37 8 -8 -8
-13 -8 -17 0 -24 39 -60 -18 -96 -151 -11 -40 -38 -125 -59 -188 -22 -63 -40
-125 -41 -137 0 -13 -4 -23 -10 -23 -5 0 -10 -6 -10 -13 0 -8 -11 -36 -25 -63
-14 -27 -25 -56 -25 -64 -1 -19 -25 -52 -32 -44 -4 3 -5 -3 -4 -13 0 -10 -5
-17 -13 -15 -9 2 -11 -3 -7 -13 3 -9 -1 -18 -9 -21 -8 -4 -15 -12 -15 -20 0
-8 -4 -14 -8 -14 -4 0 -14 -16 -21 -35 -12 -35 -13 -35 -70 -35 -45 0 -62 -4
-76 -20 -13 -14 -31 -20 -60 -20 -34 0 -44 -4 -48 -20 -3 -12 -14 -20 -25 -20
-30 0 -34 -14 -11 -33 10 -9 19 -25 19 -35 0 -36 70 -82 125 -82 33 0 38 -13
21 -52 -9 -18 -41 -98 -71 -178 -31 -80 -68 -172 -81 -205 -14 -33 -29 -69
-33 -80 -5 -11 -13 -31 -19 -45 -45 -106 -115 -345 -127 -436 -9 -67 16 -156
67 -244 21 -35 38 -70 38 -76 0 -32 167 -133 290 -176 202 -69 497 -85 761
-39 306 53 476 129 706 316 43 35 99 148 107 219 7 51 5 59 -16 81 -13 14 -32
25 -43 25 -12 0 -30 15 -44 36 -22 32 -28 35 -65 32 l-41 -3 -5 -85 c-3 -51
-12 -97 -22 -115 -24 -45 -106 -118 -163 -145 -27 -13 -52 -27 -55 -30 -3 -4
-14 -9 -25 -13 -11 -3 -51 -19 -90 -35 -141 -58 -335 -93 -524 -93 -280 0
-412 32 -547 132 -82 60 -99 91 -98 174 2 121 44 252 214 670 152 374 137 343
179 354 20 6 74 19 121 31 203 51 380 133 558 257 151 105 264 232 354 398 31
56 35 77 14 69 -8 -3 -19 3 -25 14 -6 11 -24 25 -40 30 -24 9 -32 7 -47 -9
-21 -23 -36 -25 -27 -3 12 32 -17 9 -159 -127 -219 -208 -340 -293 -506 -355
-64 -25 -142 -32 -142 -14 0 6 29 68 64 138 35 70 80 170 100 222 63 160 98
245 106 255 33 45 34 171 1 183 -9 3 -22 14 -29 24 -16 22 -32 23 -32 3z m-93
-197 c-3 -8 -6 -5 -6 6 -1 11 2 17 5 13 3 -3 4 -12 1 -19z m-86 -69 c-16 -34
-19 -37 -14 -14 3 17 10 34 14 40 5 5 10 18 10 30 1 13 3 15 6 4 2 -8 -5 -35
-16 -60z m49 -56 c-33 -89 -107 -238 -126 -254 -15 -13 -16 -11 -9 11 4 14 26
66 50 115 24 50 55 117 70 150 33 74 45 57 15 -22z m-77 -8 c-3 -9 -8 -14 -10
-11 -3 3 -2 9 2 15 9 16 15 13 8 -4z m-88 -321 c-8 -16 -15 -24 -15 -18 0 15
25 65 28 55 1 -4 -4 -21 -13 -37z m62 -6 c-3 -8 -6 -5 -6 6 -1 11 2 17 5 13 3
-3 4 -12 1 -19z m-131 -149 c-9 -19 -15 -27 -16 -18 0 18 24 72 28 60 1 -4 -4
-23 -12 -42z m364 -113 c0 -2 -7 -7 -16 -10 -8 -3 -12 -2 -9 4 6 10 25 14 25
6z m-475 -13 l70 -7 -50 -7 c-74 -11 -173 -10 -179 0 -13 20 45 25 159 14z
m411 -20 c-33 -17 -67 -29 -146 -48 -65 -16 -81 -12 -18 5 23 7 51 16 60 21
10 5 26 9 36 9 10 0 22 4 28 9 8 9 37 18 59 19 6 1 -3 -6 -19 -15z m-426 -188
c0 -3 -4 -13 -9 -23 -15 -27 -61 -139 -61 -146 0 -6 -7 -22 -69 -162 -17 -39
-42 -102 -55 -140 -13 -38 -33 -90 -44 -115 -22 -49 -66 -191 -77 -253 -4 -20
-11 -39 -16 -42 -27 -16 10 152 57 261 7 17 36 90 63 163 46 120 139 348 177
430 13 27 34 44 34 27z m-163 -217 c-3 -8 -6 -5 -6 6 -1 11 2 17 5 13 3 -3 4
-12 1 -19z m109 -54 c-4 -9 -9 -15 -11 -12 -3 3 -3 13 1 22 4 9 9 15 11 12 3
-3 3 -13 -1 -22z m-39 -86 c-3 -8 -6 -5 -6 6 -1 11 2 17 5 13 3 -3 4 -12 1
-19z m-260 -380 c-3 -8 -6 -5 -6 6 -1 11 2 17 5 13 3 -3 4 -12 1 -19z"/>
<path d="M19031 12524 c0 -11 3 -14 6 -6 3 7 2 16 -1 19 -3 4 -6 -2 -5 -13z"/>
<path d="M41556 12515 c10 -8 28 -14 39 -15 16 0 14 3 -9 15 -36 19 -56 19
-30 0z"/>
<path d="M11417 12497 c-15 -5 -27 -12 -27 -17 0 -12 -51 -36 -117 -55 -56
-16 -235 -125 -263 -160 -14 -18 39 9 110 55 40 26 211 89 260 96 62 9 42 -9
-40 -36 -135 -44 -367 -187 -528 -322 -123 -105 -356 -337 -449 -448 -140
-168 -211 -271 -386 -563 -26 -43 -47 -80 -47 -84 0 -4 -6 -14 -14 -22 -14
-16 -119 -205 -213 -381 -28 -52 -72 -142 -98 -200 -25 -58 -59 -130 -74 -160
-56 -108 -107 -250 -190 -525 -45 -150 -49 -166 -86 -350 -77 -384 -104 -602
-105 -858 0 -130 -10 -195 -24 -157 -3 8 -7 107 -9 220 -2 113 -3 41 -2 -160
l2 -365 36 -185 c42 -211 108 -400 142 -410 11 -3 31 -13 45 -22 14 -9 47 -18
74 -20 43 -3 51 0 69 24 28 37 41 177 38 413 -3 193 11 495 29 640 5 44 19
164 30 268 21 190 34 270 96 571 31 152 133 568 168 686 8 25 26 90 40 145 15
55 47 159 71 230 24 72 55 173 70 225 14 52 30 105 34 116 5 12 19 82 31 155
19 114 28 145 61 206 21 40 39 80 39 91 0 10 4 22 9 28 5 5 12 20 16 34 6 19
0 15 -23 -17 -60 -81 -54 -43 7 45 39 56 176 267 180 277 2 5 9 15 15 21 6 6
36 42 66 80 109 135 541 544 575 544 4 0 19 8 33 19 79 55 315 158 387 168 55
7 71 -10 80 -84 19 -170 -157 -587 -375 -888 -66 -90 -190 -242 -321 -390 -74
-84 -231 -268 -458 -535 -25 -30 -64 -75 -86 -100 -70 -79 -142 -183 -180
-258 -20 -39 -41 -72 -45 -72 -38 0 -55 -91 -21 -109 10 -6 21 -21 25 -35 8
-33 96 -95 176 -124 198 -72 321 -94 649 -117 523 -35 768 -108 936 -279 59
-60 125 -167 125 -201 0 -10 -12 -39 -26 -66 -36 -65 -28 -90 42 -135 65 -41
90 -40 148 8 122 100 93 295 -73 498 -71 87 -128 137 -208 186 -82 49 -100 42
-23 -10 36 -24 78 -58 93 -76 28 -31 28 -32 5 -25 -12 4 -36 16 -51 27 -86 60
-125 83 -219 124 -99 44 -283 104 -317 104 -10 0 -53 9 -97 20 -106 26 -323
50 -522 57 -100 4 -158 10 -150 15 8 5 -11 6 -47 2 -56 -6 -59 -5 -40 10 l20
15 -20 1 c-27 0 -155 71 -169 92 -8 14 2 35 53 110 35 51 75 107 88 123 14 17
76 95 140 175 143 180 181 226 263 317 117 130 175 197 240 278 36 44 67 82
70 85 7 6 159 196 206 255 141 182 299 458 348 609 52 157 61 207 61 332 0
117 -1 122 -28 157 -47 62 -64 68 -189 71 -62 1 -126 -2 -141 -7z m-607 -508
c-84 -77 -125 -102 -50 -30 41 39 79 71 85 71 5 0 -10 -19 -35 -41z m-336
-331 c-7 -12 -60 -80 -94 -120 -8 -10 -19 -18 -25 -18 -7 0 -7 3 0 8 6 4 23
25 39 47 43 58 100 117 80 83z m912 -140 c-11 -15 -16 -18 -16 -7 0 16 21 42
28 34 2 -2 -3 -14 -12 -27z m-1058 -52 c-14 -12 -31 -32 -38 -46 -17 -32 -71
-103 -87 -113 -7 -4 -13 -13 -13 -18 0 -6 -7 -17 -15 -25 -26 -26 -16 2 18 53
60 89 151 196 156 182 2 -7 -7 -22 -21 -33z m1006 -18 c-10 -36 -104 -162
-104 -141 0 8 102 163 108 163 2 0 0 -10 -4 -22z m-114 -158 c0 -6 -143 -171
-263 -304 -40 -44 -82 -93 -95 -110 -12 -17 -71 -80 -132 -141 -60 -60 -124
-129 -142 -152 -100 -125 -268 -313 -268 -299 0 11 65 100 121 166 26 30 107
125 180 210 73 85 175 202 228 260 53 58 123 137 155 175 107 128 179 201 198
201 10 0 18 -3 18 -6z m-1089 -92 c-11 -18 -21 -27 -21 -20 0 16 31 64 38 58
2 -3 -5 -20 -17 -38z m-101 -158 c0 -5 -5 -10 -11 -10 -5 0 -7 5 -4 10 3 6 8
10 11 10 2 0 4 -4 4 -10z m54 -15 c-4 -8 -8 -15 -10 -15 -2 0 -4 7 -4 15 0 8
4 15 10 15 5 0 7 -7 4 -15z m-99 -67 c-15 -29 -37 -66 -49 -83 -12 -16 -28
-43 -36 -60 -8 -16 -36 -66 -61 -110 -25 -44 -59 -109 -76 -145 -17 -36 -50
-105 -73 -153 -22 -48 -40 -97 -38 -109 3 -21 14 -2 83 142 13 26 78 149 125
235 15 28 42 77 60 110 36 68 51 88 58 80 3 -2 0 -10 -5 -17 -47 -59 -291
-562 -343 -707 -21 -58 -48 -131 -60 -161 -25 -61 -107 -330 -122 -400 -21
-100 -41 -167 -59 -200 -10 -19 -18 -28 -18 -20 -1 15 38 180 59 250 48 165
80 285 80 302 0 20 -1 21 -20 3 -11 -10 -20 -25 -20 -34 -1 -9 -7 -27 -15 -41
-11 -19 -14 -21 -15 -7 0 9 4 25 9 35 5 9 17 44 26 77 17 60 65 193 90 250 7
17 23 53 35 80 31 70 171 353 225 454 70 132 174 295 182 287 3 -3 -7 -29 -22
-58z m68 27 c-3 -9 -8 -14 -10 -11 -3 3 -2 9 2 15 9 16 15 13 8 -4z m-236
-597 c-3 -8 -6 -5 -6 6 -1 11 2 17 5 13 3 -3 4 -12 1 -19z m-122 -200 c-9 -34
-21 -72 -25 -83 -12 -26 -38 -115 -56 -185 -16 -65 -48 -179 -57 -200 -6 -16
-35 -140 -47 -205 -5 -22 -15 -71 -24 -110 -38 -159 -66 -350 -70 -470 -3 -87
-21 -289 -30 -350 -3 -16 -8 -81 -12 -143 -4 -62 -11 -115 -15 -118 -5 -3 -9
5 -9 18 0 13 -5 77 -10 143 -15 189 0 344 79 840 11 72 34 174 60 275 11 41
30 113 42 160 12 47 25 94 30 105 22 56 59 161 59 167 0 4 13 36 28 70 16 35
37 84 48 110 10 26 20 45 22 43 2 -2 -4 -32 -13 -67z m-18 -285 c-3 -10 -5 -4
-5 12 0 17 2 24 5 18 2 -7 2 -21 0 -30z m726 -10 c-7 -2 -19 -2 -25 0 -7 3 -2
5 12 5 14 0 19 -2 13 -5z m-1006 -240 c-3 -10 -5 -4 -5 12 0 17 2 24 5 18 2
-7 2 -21 0 -30z m1718 23 l50 -14 -56 -1 c-33 -1 -69 5 -85 14 l-29 15 35 0
c19 0 58 -7 85 -14z m944 -304 c33 -51 39 -76 19 -70 -25 8 -75 118 -54 118 2
0 18 -22 35 -48z m-2564 -269 c-3 -27 -9 -102 -15 -168 -6 -66 -15 -149 -20
-185 -5 -36 -14 -126 -20 -200 -6 -74 -17 -209 -25 -300 -8 -91 -15 -192 -15
-225 -1 -57 -1 -59 -15 -35 -9 16 -14 55 -15 110 0 117 54 641 81 783 5 26 9
64 9 84 0 20 4 52 10 72 5 20 12 53 15 74 8 53 15 46 10 -10z m-208 -215 c-3
-7 -5 -2 -5 12 0 14 2 19 5 13 2 -7 2 -19 0 -25z m-11 -100 c-4 -35 -11 -90
-15 -123 l-9 -60 4 70 c4 93 15 175 21 175 3 0 3 -28 -1 -62z m-24 -230 c-7
-7 -12 -8 -12 -2 0 14 12 26 19 19 2 -3 -1 -11 -7 -17z m-15 -195 c-2 -27 -3
-5 -3 47 0 52 1 74 3 48 2 -27 2 -69 0 -95z m20 -400 c-3 -10 -5 -2 -5 17 0
19 2 27 5 18 2 -10 2 -26 0 -35z"/>
<path d="M9602 10175 c0 -16 2 -22 5 -12 2 9 2 23 0 30 -3 6 -5 -1 -5 -18z"/>
<path d="M41620 12492 c0 -5 17 -14 38 -21 20 -7 61 -24 90 -37 29 -13 57 -24
62 -24 6 0 29 -9 53 -20 23 -10 65 -27 92 -36 47 -15 93 -34 173 -71 18 -9 35
-13 38 -10 6 6 -166 90 -221 107 -22 7 -44 16 -50 20 -5 4 -19 10 -30 13 -11
3 -51 17 -90 32 -101 39 -155 55 -155 47z"/>
<path d="M30092 12430 c-13 -44 -16 -67 -5 -56 10 10 31 96 24 96 -3 0 -12
-18 -19 -40z"/>
<path d="M29217 12359 c-50 -53 -61 -77 -28 -59 19 10 85 99 79 106 -2 2 -25
-19 -51 -47z"/>
<path d="M30072 12330 c0 -19 2 -27 5 -17 2 9 2 25 0 35 -3 9 -5 1 -5 -18z"/>
<path d="M33223 12285 c0 -22 2 -30 4 -17 2 12 2 30 0 40 -3 9 -5 -1 -4 -23z"/>
<path d="M30051 12254 c0 -11 3 -14 6 -6 3 7 2 16 -1 19 -3 4 -6 -2 -5 -13z"/>
<path d="M29114 12232 c-6 -4 -16 -17 -23 -29 -16 -32 4 -30 25 2 17 27 16 39
-2 27z"/>
<path d="M29228 12192 c-30 -12 -121 -137 -221 -304 -111 -184 -249 -458 -362
-718 -42 -96 -82 -188 -90 -205 -7 -16 -19 -47 -26 -67 -15 -43 -28 -41 -30 5
-1 22 -3 25 -6 12 -3 -11 -13 -31 -23 -45 -10 -14 -26 -52 -35 -85 -10 -33
-31 -89 -47 -125 -17 -36 -46 -114 -65 -175 -19 -60 -47 -144 -63 -185 -16
-41 -44 -115 -61 -165 -28 -80 -59 -144 -59 -121 0 18 33 136 62 221 31 92 48
155 43 155 -2 0 -11 -7 -20 -16 -15 -15 -15 -14 -9 12 4 16 15 45 25 64 l18
35 2 -30 c1 -22 3 -24 6 -10 3 11 9 25 15 32 11 14 0 103 -13 103 -5 0 -9 -10
-9 -22 0 -12 -14 -43 -31 -69 -17 -27 -38 -74 -46 -106 -8 -32 -21 -69 -28
-83 -7 -14 -30 -68 -50 -120 -21 -52 -43 -108 -50 -125 -7 -16 -18 -48 -25
-70 -7 -22 -25 -69 -40 -105 -16 -36 -41 -98 -56 -137 -30 -80 -42 -87 -98
-58 -15 8 -32 15 -37 15 -20 0 -49 -36 -49 -62 0 -15 -5 -30 -10 -33 -13 -8
-129 72 -240 165 -86 72 -187 146 -215 156 -10 4 -15 0 -15 -10 0 -9 5 -16 10
-16 6 0 10 -5 10 -12 0 -6 -8 -3 -20 7 -11 10 -17 22 -13 28 3 5 1 7 -5 3 -9
-6 -59 11 -72 24 -5 5 -30 17 -90 43 -39 17 -105 36 -165 48 -111 22 -270 51
-350 64 -49 8 -108 19 -130 24 -123 28 -403 81 -430 81 -22 0 -93 22 -380 116
-226 74 -288 97 -323 120 -55 35 -162 128 -167 145 -3 9 1 35 8 57 12 34 12
39 1 35 -16 -6 -17 -2 -5 29 5 13 26 68 46 123 20 55 41 109 45 120 14 31 51
127 62 160 15 46 38 187 32 197 -3 5 0 16 8 25 19 24 16 221 -5 300 -24 92
-52 139 -122 209 -69 68 -135 108 -165 99 -11 -3 -30 1 -42 9 -13 9 -59 27
-103 42 -71 23 -101 27 -261 31 -271 8 -390 -14 -174 -32 276 -23 430 -70 548
-170 29 -24 78 -95 65 -95 -3 0 -33 26 -67 58 -75 69 -141 103 -266 137 -183
48 -549 57 -645 15 -11 -5 -36 -11 -55 -14 -25 -3 -198 -32 -217 -36 -1 0 -8
-6 -15 -13 -12 -12 -97 -48 -145 -62 -13 -3 -23 -10 -23 -14 0 -4 -15 -7 -34
-7 -42 0 -71 -21 -56 -39 8 -9 7 -15 -2 -18 -9 -4 -9 -6 -1 -6 6 -1 15 4 18 9
3 6 14 10 24 10 10 0 24 6 30 14 6 8 26 16 44 19 132 21 209 54 165 70 -7 2 7
7 32 12 25 4 54 12 65 19 11 6 38 12 60 12 22 1 63 7 90 13 83 19 381 30 452
17 34 -6 64 -14 67 -17 14 -14 -105 -16 -170 -4 -86 16 -146 13 -205 -13 -25
-11 -72 -25 -105 -31 -486 -95 -924 -380 -1267 -826 -59 -77 -113 -147 -120
-155 -48 -59 -257 -366 -257 -377 0 -3 -8 -17 -19 -31 -18 -25 -92 -152 -148
-252 -14 -25 -30 -50 -34 -56 -19 -24 -269 -526 -269 -540 0 -8 -11 -32 -25
-52 -14 -20 -25 -41 -25 -47 -1 -5 -9 -28 -20 -50 -11 -22 -19 -43 -20 -47 0
-4 -15 -40 -34 -80 -100 -215 -229 -578 -275 -778 -6 -25 -20 -79 -31 -120
-21 -74 -53 -219 -70 -315 -5 -27 -17 -79 -26 -114 -16 -67 -21 -87 -53 -261
l-19 -105 -1 62 c-1 34 4 65 9 68 6 3 10 21 10 40 0 18 7 68 15 111 8 44 20
102 25 129 5 28 14 73 19 100 6 28 17 91 26 140 9 50 25 126 37 170 11 44 23
94 25 110 2 17 8 39 12 50 5 11 21 61 36 110 15 50 35 113 45 140 10 28 26 75
35 105 9 30 20 64 25 75 5 11 16 45 26 75 10 30 22 59 26 65 4 5 8 18 8 30 -1
24 -39 -55 -64 -130 -9 -28 -21 -59 -26 -70 -12 -26 -64 -184 -84 -255 -9 -30
-27 -95 -41 -145 -102 -358 -191 -803 -240 -1190 -8 -71 -20 -152 -25 -178 -6
-27 -10 -86 -10 -133 0 -47 -4 -84 -10 -84 -5 0 -8 6 -5 13 2 6 5 100 8 207 3
112 1 165 -3 125 -4 -38 -13 -108 -21 -155 -15 -93 -17 -356 -4 -434 7 -46 9
-48 22 -30 14 17 14 15 8 -22 -9 -58 28 -138 85 -183 l43 -34 -5 27 c-6 30 -7
30 66 -28 30 -23 39 -26 51 -16 20 17 41 64 54 120 5 25 19 71 31 104 12 32
25 77 29 100 5 22 18 84 29 136 31 149 44 233 40 260 -2 16 -10 -3 -21 -55
-52 -231 -96 -387 -114 -407 -11 -12 -13 -29 -10 -60 3 -24 3 -34 0 -23 -3 11
-14 31 -24 44 -22 28 -24 71 -5 114 15 34 40 124 55 197 5 25 17 81 26 125 36
167 42 206 75 435 11 80 19 165 19 190 l-1 45 -9 -35 c-6 -19 -14 -80 -19
-135 -5 -55 -14 -125 -19 -155 -6 -30 -15 -82 -20 -115 -6 -33 -18 -94 -26
-135 -9 -41 -20 -97 -25 -125 -10 -55 -46 -209 -62 -267 -10 -35 -33 -56 -47
-42 -11 11 -5 458 7 549 27 193 77 513 92 590 12 62 50 269 80 435 12 69 31
159 42 200 11 41 23 91 28 110 4 19 14 53 22 75 8 22 23 67 34 100 10 33 21
67 25 75 12 23 59 155 59 163 0 10 66 181 91 234 10 24 19 46 19 49 0 3 16 40
36 82 42 88 84 195 91 232 4 22 3 22 -11 -5 -13 -26 -41 -88 -99 -217 -10 -20
-17 -39 -17 -42 0 -3 -9 -25 -19 -49 -22 -47 -125 -310 -170 -432 -61 -165
-155 -501 -197 -700 -8 -38 -19 -90 -25 -115 -5 -25 -14 -65 -19 -90 -4 -25
-11 -62 -15 -83 -4 -21 -11 -39 -14 -42 -9 -5 2 83 24 200 10 50 19 106 22
125 11 100 49 258 115 475 49 164 98 298 192 530 55 133 65 158 101 239 8 19
15 37 15 41 0 4 27 62 59 129 32 66 75 156 95 200 20 43 45 91 55 105 10 14
31 51 47 81 15 30 40 73 55 95 14 22 41 69 61 105 19 36 50 91 69 123 19 32
39 66 44 75 30 51 99 158 105 162 4 3 51 68 105 145 54 77 100 142 104 145 4
3 40 47 80 98 79 101 285 308 373 375 31 23 82 63 115 88 79 62 210 138 357
209 115 56 160 72 322 119 135 40 422 78 454 61 10 -5 53 -10 95 -10 42 0 95
-4 118 -9 23 -5 68 -15 100 -21 63 -13 198 -83 236 -124 29 -30 41 -33 41 -8
0 9 12 -14 26 -53 22 -62 42 -214 44 -332 0 -33 15 -28 16 5 0 15 1 50 3 77 2
46 3 48 11 21 5 -16 6 -49 3 -73 -3 -26 -2 -43 5 -43 18 0 37 131 36 249 0 70
3 105 8 91 5 -13 16 -39 26 -59 18 -37 21 -130 9 -241 l-6 -55 16 50 c8 28 20
63 26 80 l11 29 6 -24 c19 -77 -74 -391 -195 -665 -12 -26 -31 -84 -41 -122
-2 -7 -10 -10 -20 -6 -12 4 -14 14 -10 37 9 45 72 214 96 258 6 10 10 28 9 40
0 15 -2 17 -6 8 -6 -19 -23 -58 -64 -145 -18 -38 -42 -97 -54 -129 -20 -53
-26 -61 -65 -76 -56 -22 -78 -61 -55 -96 37 -57 174 -147 301 -199 151 -61
447 -139 659 -175 39 -6 87 -16 108 -21 21 -6 71 -12 110 -14 40 -2 59 -1 42
1 -16 3 -34 10 -39 15 -6 5 -30 9 -55 10 -35 1 -40 3 -22 8 14 4 57 1 95 -6
39 -8 88 -16 109 -20 52 -8 62 -28 10 -21 -22 3 -46 2 -53 -2 -7 -4 6 -10 32
-13 23 -4 63 -11 88 -16 25 -5 86 -17 135 -26 50 -9 113 -20 140 -25 28 -6 77
-14 110 -20 135 -22 359 -99 370 -128 4 -10 0 -13 -12 -9 -10 4 -58 20 -107
37 -92 30 -149 43 -361 80 -66 12 -138 25 -160 30 -22 5 -87 17 -145 25 -135
21 -495 94 -529 107 -14 5 -82 25 -151 43 -254 67 -286 76 -340 96 -30 12 -66
23 -80 26 -20 3 -18 0 14 -21 66 -42 357 -130 591 -179 297 -63 461 -94 655
-126 62 -10 178 -32 265 -50 167 -35 336 -96 353 -128 6 -10 43 -36 82 -58 40
-22 128 -84 197 -138 213 -168 292 -211 383 -205 51 3 54 1 60 -22 4 -16 13
-25 25 -26 11 -1 34 -4 51 -8 24 -5 33 -3 38 10 5 13 9 14 22 4 20 -18 33 -3
45 51 6 24 15 46 20 50 5 3 12 23 16 45 8 52 24 73 35 45 5 -14 13 -19 25 -14
47 16 75 62 123 196 16 45 43 116 60 157 58 137 70 174 80 240 14 89 32 160
41 160 4 0 9 -15 11 -32 3 -31 5 -29 39 42 21 41 53 109 72 150 83 177 122
257 142 290 12 19 53 91 91 160 76 139 187 326 244 410 87 130 114 168 148
210 67 83 171 202 370 422 l24 26 -40 20 -40 19 -33 -41 c-19 -22 -75 -88
-124 -146 -146 -170 -207 -248 -292 -370 -114 -165 -128 -188 -323 -545 -18
-33 -49 -89 -68 -125 -70 -127 -140 -281 -173 -382 -19 -57 -35 -95 -37 -85
-3 16 14 78 38 142 30 76 45 117 62 170 28 84 203 525 244 613 19 41 34 76 34
79 0 18 95 195 98 181 2 -9 -4 -30 -13 -47 -14 -28 -14 -31 0 -31 8 0 15 6 15
13 1 11 26 45 145 195 22 28 61 79 87 114 59 79 239 280 256 286 21 7 13 -15
-23 -58 -53 -63 -42 -72 15 -11 28 29 50 57 50 62 0 5 -11 16 -25 25 -37 24
-66 6 -133 -86 -31 -41 -94 -122 -142 -180 -47 -58 -94 -118 -103 -133 -32
-50 -117 -138 -117 -121 0 37 170 354 256 478 20 28 52 77 72 109 35 55 39 57
70 52 19 -4 32 -2 32 5 0 5 -4 10 -9 10 -5 0 -15 2 -23 4 -7 3 -21 2 -30 -2z
m182 -262 c0 -5 -5 -10 -11 -10 -5 0 -7 5 -4 10 3 6 8 10 11 10 2 0 4 -4 4
-10z m-4274 -61 c35 -21 47 -53 18 -47 -17 3 -73 68 -59 68 4 0 23 -9 41 -21z
m1 -1221 c-3 -8 -6 -5 -6 6 -1 11 2 17 5 13 3 -3 4 -12 1 -19z m3136 -138 c-3
-11 -7 -20 -9 -20 -2 0 -4 9 -4 20 0 11 4 20 9 20 5 0 7 -9 4 -20z m-84 -224
c-9 -8 -10 -7 -5 7 3 10 7 26 7 35 1 9 4 6 6 -7 3 -13 -1 -28 -8 -35z m-2634
-14 c-3 -3 -11 0 -18 7 -9 10 -8 11 6 5 10 -3 15 -9 12 -12z m208 -49 c-7 -2
-21 -2 -30 0 -10 3 -4 5 12 5 17 0 24 -2 18 -5z m225 -50 c-10 -2 -26 -2 -35
0 -10 3 -2 5 17 5 19 0 27 -2 18 -5z m362 -63 c21 -7 19 -8 -17 -9 -24 -1 -43
4 -43 9 0 12 24 12 60 0z m837 -306 c-3 -3 -12 -4 -19 -1 -8 3 -5 6 6 6 11 1
17 -2 13 -5z m123 -93 c30 -24 60 -49 65 -55 12 -13 74 -60 125 -95 72 -49
137 -79 187 -86 59 -8 70 -16 47 -36 -13 -10 -24 -9 -67 5 -60 21 -170 84
-207 118 -14 13 -43 36 -65 53 -43 31 -194 177 -160 154 11 -7 45 -33 75 -58z
m697 -23 c-3 -7 -5 -2 -5 12 0 14 2 19 5 13 2 -7 2 -19 0 -25z m-269 -196 c2
-7 -3 -12 -12 -12 -9 0 -16 7 -16 16 0 17 22 14 28 -4z m-6217 -1589 c-4 -28
-6 -32 -9 -15 -3 22 3 52 11 52 1 0 1 -17 -2 -37z m-14 -105 c-2 -13 -4 -5 -4
17 -1 22 1 32 4 23 2 -10 2 -28 0 -40z m-20 -115 c-3 -10 -5 -2 -5 17 0 19 2
27 5 18 2 -10 2 -26 0 -35z m-20 -130 c-3 -10 -5 -2 -5 17 0 19 2 27 5 18 2
-10 2 -26 0 -35z m-11 -90 c-3 -16 -9 -56 -12 -91 -4 -35 -10 -58 -14 -52 -12
20 7 170 22 170 6 0 8 -12 4 -27z"/>
<path d="M29098 12118 c-19 -24 -40 -53 -46 -65 -7 -12 -18 -27 -25 -35 -43
-45 -257 -441 -257 -475 0 -20 -2 -23 75 122 27 50 63 114 82 143 18 29 33 56
33 61 0 4 9 16 20 26 11 10 20 21 20 25 0 4 34 58 75 120 41 62 75 114 75 116
0 15 -23 -2 -52 -38z"/>
<path d="M30005 12078 c-3 -18 -11 -52 -16 -75 -6 -23 -9 -47 -6 -55 3 -7 6
-2 6 13 1 14 5 29 10 35 8 9 24 114 16 114 -2 0 -6 -15 -10 -32z"/>
<path d="M33209 12045 c-4 -5 -9 -32 -13 -60 l-6 -50 16 43 c14 40 16 90 3 67z"/>
<path d="M29910 11996 c0 -9 5 -16 10 -16 6 0 10 4 10 9 0 6 -4 13 -10 16 -5
3 -10 -1 -10 -9z"/>
<path d="M31682 11860 c0 -62 1 -70 10 -47 7 19 7 44 0 75 -10 47 -10 47 -10
-28z"/>
<path d="M29234 11876 c-55 -63 -64 -76 -56 -76 10 0 50 44 75 83 24 37 15 34
-19 -7z"/>
<path d="M31732 11735 c0 -16 2 -22 5 -12 2 9 2 23 0 30 -3 6 -5 -1 -5 -18z"/>
<path d="M1840 11605 c-32 -33 -33 -35 -11 -35 18 0 22 -4 17 -17 -6 -15 -4
-15 14 2 23 21 28 44 5 25 -12 -10 -15 -10 -15 4 0 9 4 16 9 16 9 0 24 30 18
36 -2 2 -19 -12 -37 -31z"/>
<path d="M29967 11633 c-17 -28 -96 -497 -117 -693 -5 -41 -11 -106 -16 -143
-4 -38 -10 -63 -14 -57 -4 6 -10 -51 -14 -127 -3 -76 -11 -167 -17 -203 -6
-36 -14 -130 -19 -210 -13 -224 -20 -293 -32 -318 -12 -24 -36 -24 -29 -1 2 8
7 91 12 184 5 94 15 274 24 400 14 211 22 310 59 678 7 70 9 127 5 127 -4 0
-9 -15 -12 -32 -3 -18 -12 -76 -20 -128 -9 -52 -23 -165 -32 -250 -9 -85 -20
-188 -25 -228 -6 -40 -10 -104 -10 -142 0 -38 -4 -113 -10 -167 -5 -54 -14
-149 -20 -212 -10 -118 -24 -158 -35 -105 -4 16 -13 41 -21 56 -8 15 -14 30
-13 35 4 21 -2 33 -17 33 -12 0 -14 -7 -9 -32 4 -18 13 -46 20 -63 7 -16 15
-39 18 -50 14 -54 62 -177 90 -232 30 -60 32 -97 2 -57 -44 59 -119 213 -145
299 -32 103 -52 243 -33 232 17 -11 -5 94 -24 115 -10 11 -25 38 -33 60 -10
28 -26 47 -50 59 -25 14 -42 36 -64 81 -29 62 -30 62 -34 31 -2 -18 9 -77 23
-130 46 -168 75 -293 75 -326 0 -32 23 -114 55 -197 9 -25 20 -54 25 -65 4
-11 15 -37 24 -58 9 -21 16 -42 16 -48 0 -13 -25 11 -33 31 -4 12 -6 12 -6 1
-1 -16 50 -101 61 -101 4 0 3 12 -2 26 -6 14 -10 27 -10 28 0 2 29 -26 65 -61
60 -59 85 -71 85 -39 0 7 11 18 24 25 27 15 39 51 56 161 6 41 13 86 16 100 2
14 9 115 14 225 15 318 38 631 54 750 9 61 21 146 27 190 6 44 22 145 35 225
14 80 30 171 35 202 5 32 14 69 19 84 6 14 10 30 10 35 0 11 -27 12 -33 2z
m-498 -1505 c1 -5 -3 -8 -9 -8 -5 0 -10 12 -9 28 0 24 1 25 9 7 5 -11 9 -23 9
-27z m8 -40 c-3 -8 -6 -5 -6 6 -1 11 2 17 5 13 3 -3 4 -12 1 -19z"/>
<path d="M23270 11550 l-35 -29 43 21 c23 11 42 24 42 29 0 16 -15 10 -50 -21z"/>
<path d="M6772 11535 c-13 -15 -37 -27 -62 -31 -54 -9 -64 -20 -91 -101 -20
-60 -238 -503 -299 -608 -13 -22 -75 -141 -137 -265 -186 -365 -323 -630 -368
-710 -59 -104 -319 -626 -367 -735 -22 -49 -55 -123 -75 -162 -19 -40 -31 -77
-28 -83 7 -11 -55 -41 -68 -33 -5 3 -38 2 -74 -2 -55 -6 -70 -12 -92 -36 -15
-15 -40 -33 -57 -39 -39 -14 -76 -86 -52 -104 8 -6 17 -18 20 -26 3 -9 37 -26
76 -39 39 -12 78 -28 88 -35 15 -12 16 -15 2 -42 -9 -16 -20 -40 -26 -54 -20
-50 -61 -157 -88 -230 -15 -41 -33 -84 -40 -95 -7 -11 -18 -42 -24 -70 -6 -27
-20 -69 -30 -92 -11 -24 -20 -47 -20 -52 0 -5 -4 -11 -8 -13 -10 -4 -70 -153
-78 -196 -4 -18 -11 -35 -15 -38 -5 -3 -9 -16 -9 -29 0 -13 -4 -26 -9 -29 -5
-3 -12 -22 -16 -42 -3 -20 -10 -44 -14 -53 -10 -19 -24 -59 -58 -166 -15 -44
-37 -111 -51 -150 -68 -197 -208 -679 -273 -945 -34 -142 -82 -323 -119 -450
-6 -19 -42 -145 -80 -280 -38 -135 -74 -258 -80 -275 -33 -102 -153 -604 -173
-725 -37 -215 -40 -255 -22 -290 17 -32 26 -36 106 -45 75 -9 114 10 129 64 5
21 33 94 61 162 74 179 90 228 189 589 50 179 94 339 99 355 15 48 187 744
225 915 122 540 154 662 308 1160 123 402 222 641 392 950 32 58 68 122 79
144 41 78 95 92 532 136 110 11 254 27 319 35 94 12 121 13 127 3 4 -6 6 -15
3 -20 -6 -9 -12 -147 -18 -378 -3 -91 -7 -271 -11 -400 -3 -129 -10 -264 -15
-300 -5 -36 -14 -96 -19 -135 -6 -38 -13 -95 -15 -125 -3 -30 -10 -102 -16
-160 -18 -191 -30 -454 -36 -803 l-7 -346 -37 -6 c-20 -3 -51 -15 -68 -25 -29
-18 -32 -25 -33 -72 -1 -29 -1 -62 0 -73 5 -49 115 -354 163 -450 29 -58 57
-85 89 -85 15 0 31 -5 35 -11 8 -13 59 -5 90 15 33 23 36 73 14 332 -30 355
-35 728 -15 1084 9 162 19 324 21 360 2 36 8 133 14 215 5 83 17 254 25 380 8
127 19 295 25 375 5 80 14 231 20 335 15 269 20 312 35 325 17 14 287 57 600
95 72 8 164 20 205 25 498 60 772 140 976 286 68 48 108 91 132 141 15 32 15
34 -11 61 -39 41 -110 56 -153 33 -17 -10 -40 -25 -49 -35 -10 -10 -42 -35
-70 -57 -118 -89 -451 -177 -790 -209 -148 -14 -571 -67 -645 -81 -98 -19
-140 -22 -140 -10 0 6 -6 11 -14 11 -27 0 -46 41 -41 90 5 53 24 505 30 740
20 751 25 909 35 1010 15 165 39 354 55 430 8 36 17 100 21 142 6 67 4 82 -15
121 -30 62 -81 76 -119 32z m-226 -932 c4 -65 8 -237 8 -382 l1 -265 -67 3
c-55 2 -77 -2 -125 -25 -112 -53 -250 -151 -338 -241 -47 -48 -83 -78 -79 -68
23 63 493 965 518 995 7 8 24 34 36 58 13 23 27 42 30 42 4 0 11 -53 16 -117z
m-199 -95 c-3 -8 -6 -5 -6 6 -1 11 2 17 5 13 3 -3 4 -12 1 -19z m-26 -45 c-12
-20 -14 -14 -5 12 4 9 9 14 11 11 3 -2 0 -13 -6 -23z m-28 -62 c-5 -3 -18 -25
-28 -48 -11 -24 -23 -43 -27 -43 -5 0 6 27 24 61 18 33 34 55 36 49 3 -7 0
-15 -5 -19z m-79 -146 c-4 -8 -8 -15 -10 -15 -2 0 -4 7 -4 15 0 8 4 15 10 15
5 0 7 -7 4 -15z m-100 -178 c-35 -64 -41 -59 -7 7 16 30 29 51 31 47 1 -4 -9
-29 -24 -54z m-65 -121 c-29 -49 -36 -46 -8 4 12 22 24 38 26 36 2 -2 -6 -20
-18 -40z m-50 -95 c-29 -53 -36 -46 -7 7 12 23 23 40 26 38 2 -3 -6 -23 -19
-45z m-94 -176 c-38 -71 -44 -64 -9 9 16 30 30 53 33 51 2 -3 -9 -30 -24 -60z
m612 -18 c7 -15 12 -150 12 -375 2 -329 1 -351 -16 -361 -28 -14 -239 -33
-340 -29 -48 2 -155 -1 -237 -6 -144 -9 -149 -8 -144 10 3 11 48 82 100 159
52 77 102 154 111 170 9 17 29 44 45 60 16 17 40 47 53 67 13 20 57 74 97 121
139 165 289 251 319 184z m-660 -79 c-3 -8 -6 -5 -6 6 -1 11 2 17 5 13 3 -3 4
-12 1 -19z m36 -765 c-7 -2 -19 -2 -25 0 -7 3 -2 5 12 5 14 0 19 -2 13 -5z
m-876 -1135 c-3 -7 -5 -2 -5 12 0 14 2 19 5 13 2 -7 2 -19 0 -25z"/>
<path d="M31702 11535 c0 -16 2 -22 5 -12 2 9 2 23 0 30 -3 6 -5 -1 -5 -18z"/>
<path d="M10214 11488 c-27 -31 -57 -79 -51 -84 3 -3 29 27 80 94 17 22 -8 13
-29 -10z"/>
<path d="M1775 11466 c-20 -21 -26 -36 -16 -36 6 0 15 9 21 21 13 24 10 32 -5
15z"/>
<path d="M31683 11395 c0 -22 2 -30 4 -17 2 12 2 30 0 40 -3 9 -5 -1 -4 -23z"/>
<path d="M1717 11398 c-8 -13 -24 -32 -35 -44 -10 -11 -25 -31 -31 -45 -10
-20 -8 -20 14 6 14 17 29 35 33 40 4 6 16 21 26 33 11 12 17 24 14 27 -3 3
-12 -5 -21 -17z"/>
<path d="M43457 11397 c-28 -14 -44 -32 -59 -66 -19 -46 -19 -46 0 -87 24 -49
69 -72 110 -58 20 7 29 19 35 49 14 69 4 153 -21 173 -19 14 -17 15 -65 -11z"/>
<path d="M28701 11394 c0 -11 3 -14 6 -6 3 7 2 16 -1 19 -3 4 -6 -2 -5 -13z"/>
<path d="M29823 11370 c0 -25 2 -35 4 -22 2 12 2 32 0 45 -2 12 -4 2 -4 -23z"/>
<path d="M10083 11339 c-12 -4 -39 -31 -59 -59 -20 -28 -44 -50 -54 -50 -10 0
-20 -7 -24 -15 -3 -8 -16 -15 -29 -15 -48 0 -88 -80 -54 -108 16 -14 30 -4 50
34 9 17 23 36 31 43 14 12 15 10 9 -20 -6 -34 -6 -33 39 21 25 30 52 69 62 85
9 17 26 42 38 57 25 32 22 39 -9 27z"/>
<path d="M31718 11250 c-12 -83 -10 -166 2 -154 7 7 10 51 8 110 -3 92 -4 95
-10 44z"/>
<path d="M28645 11277 c-18 -20 -25 -35 -39 -82 -23 -73 -6 -59 39 33 18 37
17 68 0 49z"/>
<path d="M31658 11140 c-9 -201 -24 -390 -33 -412 -8 -19 -35 -25 -35 -8 0 6
-20 10 -44 10 -26 0 -48 6 -56 15 -7 8 -23 15 -36 15 -26 0 -28 -12 -26 -134
1 -64 40 -170 57 -156 13 11 21 4 43 -40 12 -23 52 -50 75 -50 21 0 76 71 82
107 4 21 8 43 10 48 1 6 -4 17 -12 27 -12 14 -12 23 2 70 10 34 17 106 20 203
4 154 3 155 -27 5 -17 -82 -25 -31 -15 93 4 55 6 159 5 231 l-3 131 -7 -155z"/>
<path d="M25252 11215 c0 -16 2 -22 5 -12 2 9 2 23 0 30 -3 6 -5 -1 -5 -18z"/>
<path d="M25231 11168 c0 -9 -4 -25 -7 -35 -5 -14 -4 -15 5 -7 7 7 11 22 8 35
-2 13 -5 16 -6 7z"/>
<path d="M28543 11053 c-12 -21 -25 -59 -28 -84 l-7 -44 17 30 c39 67 46 86
43 111 -3 26 -4 26 -25 -13z"/>
<path d="M25132 11051 c-6 -17 -7 -33 -3 -36 9 -5 25 55 17 62 -2 2 -8 -10
-14 -26z"/>
<path d="M25112 10980 c0 -14 2 -19 5 -12 2 6 2 18 0 25 -3 6 -5 1 -5 -13z"/>
<path d="M28421 10944 c0 -11 3 -14 6 -6 3 7 2 16 -1 19 -3 4 -6 -2 -5 -13z"/>
<path d="M25091 10934 c0 -11 3 -14 6 -6 3 7 2 16 -1 19 -3 4 -6 -2 -5 -13z"/>
<path d="M25047 10842 c-28 -70 -39 -132 -14 -82 20 41 49 129 45 140 -1 5
-15 -21 -31 -58z"/>
<path d="M21327 10876 c-20 -8 -56 -17 -80 -20 -45 -7 -104 -35 -76 -36 9 0
36 7 60 15 66 24 202 21 271 -5 31 -11 62 -27 69 -36 9 -11 -1 -9 -36 6 -27
12 -67 23 -89 26 -99 12 -420 -105 -534 -196 -87 -68 -184 -164 -202 -200 -10
-19 -31 -48 -46 -63 -15 -16 -35 -39 -44 -52 -83 -126 -397 -445 -587 -598
-175 -140 -360 -262 -613 -404 -19 -11 -75 -44 -125 -73 -82 -49 -482 -252
-649 -330 -39 -18 -106 -50 -150 -72 -79 -39 -152 -68 -170 -68 -6 0 19 14 55
31 35 18 73 36 83 42 11 5 157 79 325 163 324 163 494 254 601 321 36 22 115
71 175 108 124 77 129 80 96 70 -13 -4 -54 -27 -90 -50 -37 -24 -107 -64 -156
-90 -48 -26 -105 -58 -126 -71 -49 -31 -429 -224 -499 -253 -30 -13 -111 -51
-180 -84 -124 -60 -214 -97 -236 -97 -6 0 -16 12 -23 26 -10 23 -16 25 -46 20
-22 -4 -35 -3 -35 4 0 5 -4 10 -10 10 -5 0 -10 -8 -10 -19 0 -25 -20 -81 -30
-81 -4 0 -10 14 -14 31 l-6 31 -34 -28 c-26 -22 -35 -37 -35 -63 -1 -28 2 -32
17 -26 9 4 26 9 37 12 11 3 35 12 53 20 18 8 37 13 42 11 9 -3 -65 -43 -125
-69 -318 -137 -447 -189 -467 -189 -21 0 -208 -65 -278 -97 -95 -43 -148 -79
-170 -116 -26 -42 -25 -45 8 -49 15 -2 28 -10 28 -18 1 -8 2 -19 3 -24 0 -5
11 0 24 11 24 21 124 67 172 79 35 8 418 160 455 180 14 7 117 54 230 105 113
50 261 119 330 153 69 34 148 72 175 84 28 12 91 45 140 72 50 27 119 63 155
81 203 98 340 169 379 195 24 16 49 32 55 36 6 4 45 24 86 44 41 19 94 48 117
62 92 58 279 186 300 205 13 11 26 17 30 13 4 -4 1 -11 -6 -15 -8 -5 -9 -11
-3 -15 12 -7 73 38 173 132 30 28 59 52 63 52 36 0 486 458 486 494 0 4 6 13
13 20 6 8 32 37 57 67 108 128 221 243 255 261 25 13 28 17 -81 -94 -84 -86
-117 -126 -287 -343 -86 -111 -346 -367 -486 -478 -143 -116 -258 -194 -471
-323 -212 -129 -206 -126 -650 -355 -24 -12 -214 -103 -340 -162 -63 -30 -150
-71 -192 -91 -42 -20 -79 -36 -82 -36 -3 0 -31 -12 -63 -26 -32 -14 -76 -34
-98 -44 -22 -10 -76 -33 -120 -50 -44 -18 -122 -52 -172 -76 -51 -24 -95 -44
-97 -44 -3 0 -34 -13 -68 -29 -79 -36 -332 -130 -369 -138 -16 -3 -34 -12 -40
-19 -9 -11 -6 -16 15 -24 15 -5 26 -16 25 -22 -1 -7 2 -31 7 -53 l9 -40 5 53
5 53 55 24 c30 13 109 45 175 70 96 37 418 183 497 226 10 5 26 9 36 9 10 0
24 6 31 13 10 10 11 9 6 -5 -4 -10 -17 -18 -29 -18 -50 -1 -63 -71 -70 -380
-2 -74 -7 -152 -11 -174 -6 -30 -5 -38 6 -34 15 5 20 25 44 193 9 66 23 143
31 170 l14 50 -6 -50 c-52 -429 -64 -581 -64 -796 0 -91 -5 -235 -10 -320 -6
-95 -7 -206 -2 -289 l9 -135 2 115 c2 63 4 126 6 140 2 14 6 149 9 300 4 151
11 334 17 405 19 255 42 461 55 515 l14 55 -5 -70 c-3 -38 -12 -140 -20 -225
-22 -211 -33 -500 -44 -1110 -13 -712 -33 -1100 -82 -1645 -17 -181 -33 -342
-36 -358 -8 -38 -16 -24 -49 83 -14 47 -37 114 -50 150 -13 36 -40 148 -60
250 -30 153 -41 189 -60 209 -14 13 -27 21 -31 18 -3 -4 0 -35 6 -69 7 -35 16
-85 21 -113 11 -66 45 -234 96 -475 14 -68 41 -171 64 -243 5 -15 5 -27 -1
-27 -5 0 -11 12 -15 27 -3 16 -9 37 -14 48 -5 11 -11 31 -14 45 -4 14 -22 84
-41 155 -18 72 -36 153 -40 180 -9 75 -36 226 -45 260 -5 17 -15 60 -22 98 -7
37 -16 67 -19 67 -16 0 0 -327 20 -425 11 -55 22 -120 26 -145 38 -288 79
-408 133 -393 11 2 23 -7 35 -26 10 -18 23 -28 31 -25 8 3 17 1 21 -5 12 -20
23 -11 41 34 20 54 23 123 7 182 -6 24 -7 40 -2 37 5 -3 9 -14 9 -24 0 -10 4
-21 9 -25 10 -6 13 17 36 350 9 127 21 282 26 345 5 63 13 198 19 300 5 102
14 266 20 365 5 99 14 358 20 575 5 217 14 458 20 535 5 77 14 235 20 350 14
268 36 493 60 620 10 55 24 168 30 250 6 83 12 159 13 170 2 22 -10 15 527
281 663 328 925 488 1330 810 143 113 259 234 420 434 256 319 337 395 560
523 64 36 173 67 262 74 l77 6 72 -44 c107 -64 155 -140 197 -309 40 -160 52
-254 56 -448 2 -107 8 -197 11 -200 4 -4 5 126 3 287 -4 260 -3 290 9 255 8
-23 16 -98 19 -184 8 -257 23 -280 19 -30 -4 306 -16 411 -60 523 -4 9 -3 17
2 17 11 0 43 -87 43 -117 0 -12 4 -24 8 -27 5 -3 14 -45 21 -93 7 -48 16 -95
19 -103 3 -8 8 -75 11 -149 4 -93 10 -136 18 -138 8 -3 15 11 19 36 4 22 10
39 14 36 13 -8 31 45 20 64 -5 10 -12 49 -15 87 -14 170 -79 425 -133 524 -34
62 -88 117 -144 146 -66 34 -80 29 -33 -11 30 -26 35 -35 22 -35 -11 0 -32 9
-47 20 -53 38 -107 50 -219 50 -62 -1 -122 -6 -144 -14z m453 -81 c11 -13 10
-14 -4 -9 -9 3 -16 10 -16 15 0 13 6 11 20 -6z m86 -107 c23 -44 1 -32 -26 15
-14 23 -27 47 -29 52 -7 19 41 -40 55 -67z m-1064 -228 c-44 -49 -52 -56 -52
-45 0 9 82 95 90 95 4 0 -13 -22 -38 -50z m-67 -78 c-6 -4 -23 -24 -39 -45
-15 -21 -30 -36 -33 -33 -5 5 44 76 62 88 5 4 12 5 14 2 3 -3 1 -8 -4 -12z
m-114 -135 c-10 -9 -11 -8 -5 6 3 10 9 15 12 12 3 -3 0 -11 -7 -18z m1376 -69
c-2 -18 -4 -6 -4 27 0 33 2 48 4 33 2 -15 2 -42 0 -60z m-1446 -23 c-17 -20
-31 -32 -31 -27 0 11 53 71 59 66 2 -2 -10 -19 -28 -39z m-132 -152 c-44 -48
-71 -73 -78 -73 -3 0 19 25 49 55 61 62 82 75 29 18z m-404 -382 c-3 -6 -14
-11 -23 -11 -13 0 -13 2 4 14 21 15 30 14 19 -3z m-1702 -868 c-7 -2 -19 -2
-25 0 -7 3 -2 5 12 5 14 0 19 -2 13 -5z m-126 -49 c-3 -3 -12 -4 -19 -1 -8 3
-5 6 6 6 11 1 17 -2 13 -5z m-40 -20 c-3 -3 -12 -4 -19 -1 -8 3 -5 6 6 6 11 1
17 -2 13 -5z m-40 -20 c-3 -3 -12 -4 -19 -1 -8 3 -5 6 6 6 11 1 17 -2 13 -5z
m-42 -14 c-3 -5 -12 -10 -18 -10 -7 0 -6 4 3 10 19 12 23 12 15 0z m-47 -17
c-10 -2 -18 -9 -18 -14 0 -5 -10 -9 -22 -9 -23 0 -23 1 2 14 14 8 32 14 40 14
10 0 9 -2 -2 -5z m-98 -46 c-14 -8 -27 -12 -30 -10 -7 6 23 23 40 23 8 0 4 -6
-10 -13z m345 -17 c-3 -5 -13 -10 -21 -10 -8 0 -12 5 -9 10 3 6 13 10 21 10 8
0 12 -4 9 -10z m-395 -4 c0 -2 -7 -6 -15 -10 -8 -3 -15 -1 -15 4 0 6 7 10 15
10 8 0 15 -2 15 -4z m-43 -22 c-3 -3 -12 -4 -19 -1 -8 3 -5 6 6 6 11 1 17 -2
13 -5z m380 -96 c-2 -13 -4 -3 -4 22 0 25 2 35 4 23 2 -13 2 -33 0 -45z m-507
48 c0 -2 -9 -6 -20 -9 -11 -3 -18 -1 -14 4 5 9 34 13 34 5z"/>
<path d="M28371 10824 c0 -11 3 -14 6 -6 3 7 2 16 -1 19 -3 4 -6 -2 -5 -13z"/>
<path d="M28351 10774 c0 -11 3 -14 6 -6 3 7 2 16 -1 19 -3 4 -6 -2 -5 -13z"/>
<path d="M22572 10768 c-14 -14 -16 -28 -3 -28 9 0 24 30 18 36 -2 2 -9 -2
-15 -8z"/>
<path d="M25001 10704 c0 -11 3 -14 6 -6 3 7 2 16 -1 19 -3 4 -6 -2 -5 -13z"/>
<path d="M21950 10623 c0 -11 4 -23 8 -28 22 -26 70 -239 98 -434 5 -39 9 -49
14 -35 8 21 -8 146 -35 270 -33 150 -85 290 -85 227z"/>
<path d="M28282 10610 c0 -14 2 -19 5 -12 2 6 2 18 0 25 -3 6 -5 1 -5 -13z"/>
<path d="M28351 10204 c0 -11 3 -14 6 -6 3 7 2 16 -1 19 -3 4 -6 -2 -5 -13z"/>
<path d="M43618 10102 c-131 -133 -228 -218 -411 -359 -23 -18 -47 -33 -54
-33 -6 0 -15 -9 -18 -20 -4 -11 -21 -26 -38 -34 -18 -7 -46 -27 -64 -43 -18
-17 -35 -28 -38 -25 -3 3 -12 -4 -21 -16 -8 -12 -21 -22 -29 -22 -9 0 -12 -6
-9 -15 11 -28 34 -15 132 71 26 23 62 49 80 58 17 9 32 21 32 25 0 5 16 19 36
32 93 57 329 272 458 417 69 78 32 54 -56 -36z"/>
<path d="M816 10025 c-3 -8 -1 -15 4 -15 6 0 10 7 10 15 0 8 -2 15 -4 15 -2 0
-6 -7 -10 -15z"/>
<path d="M29422 10010 c0 -14 2 -19 5 -12 2 6 2 18 0 25 -3 6 -5 1 -5 -13z"/>
<path d="M29441 9944 c0 -11 3 -14 6 -6 3 7 2 16 -1 19 -3 4 -6 -2 -5 -13z"/>
<path d="M26458 9943 c7 -3 16 -2 19 1 4 3 -2 6 -13 5 -11 0 -14 -3 -6 -6z"/>
<path d="M22192 9910 c-6 -11 -12 -28 -12 -37 0 -12 5 -8 15 11 18 34 16 56
-3 26z"/>
<path d="M26640 9904 c30 -8 71 -13 90 -11 33 3 33 4 -7 5 -23 1 -45 7 -48 12
-3 6 -25 10 -48 9 l-42 0 55 -15z"/>
<path d="M26808 9873 c6 -2 18 -2 25 0 6 3 1 5 -13 5 -14 0 -19 -2 -12 -5z"/>
<path d="M22145 9810 c-3 -5 -1 -10 4 -10 6 0 11 5 11 10 0 6 -2 10 -4 10 -3
0 -8 -4 -11 -10z"/>
<path d="M22131 9774 c0 -11 3 -14 6 -6 3 7 2 16 -1 19 -3 4 -6 -2 -5 -13z"/>
<path d="M19710 9541 c0 -5 -8 -12 -17 -14 -15 -4 -15 -5 -2 -6 9 0 22 6 29
14 9 10 9 15 1 15 -6 0 -11 -4 -11 -9z"/>
<path d="M42876 9506 c-13 -12 -32 -26 -41 -30 -9 -3 -19 -15 -22 -26 -3 -11
-10 -20 -16 -20 -6 0 -8 -2 -5 -5 14 -15 138 70 138 95 0 18 -30 11 -54 -14z"/>
<path d="M22043 9455 c0 -22 2 -30 4 -17 2 12 2 30 0 40 -3 9 -5 -1 -4 -23z"/>
<path d="M21851 9404 c0 -11 3 -14 6 -6 3 7 2 16 -1 19 -3 4 -6 -2 -5 -13z"/>
<path d="M21832 9360 c0 -14 2 -19 5 -12 2 6 2 18 0 25 -3 6 -5 1 -5 -13z"/>
<path d="M21811 9314 c0 -11 3 -14 6 -6 3 7 2 16 -1 19 -3 4 -6 -2 -5 -13z"/>
<path d="M21796 9273 c-6 -14 -5 -15 5 -6 7 7 10 15 7 18 -3 3 -9 -2 -12 -12z"/>
<path d="M21972 9195 c0 -16 2 -22 5 -12 2 9 2 23 0 30 -3 6 -5 -1 -5 -18z"/>
<path d="M520 9182 c0 -16 -3 -32 -7 -36 -11 -11 -43 -119 -42 -146 0 -22 1
-21 15 10 34 79 62 200 45 200 -6 0 -11 -13 -11 -28z"/>
<path d="M9183 9175 c0 -22 2 -30 4 -17 2 12 2 30 0 40 -3 9 -5 -1 -4 -23z"/>
<path d="M21918 9150 c-4 -19 -13 -69 -21 -110 -8 -41 -20 -106 -26 -145 -6
-38 -18 -112 -26 -164 -13 -82 -20 -222 -9 -166 3 11 9 38 14 60 5 22 14 76
20 120 7 44 19 118 27 165 25 149 34 221 31 248 -3 25 -4 24 -10 -8z"/>
<path d="M9163 9080 c0 -25 2 -35 4 -22 2 12 2 32 0 45 -2 12 -4 2 -4 -23z"/>
<path d="M9133 8840 c0 -36 2 -50 4 -32 2 17 2 47 0 65 -2 17 -4 3 -4 -33z"/>
<path d="M435 8820 c-4 -16 -4 -34 -1 -39 4 -5 2 -12 -4 -16 -5 -3 -10 -39
-10 -78 1 -103 16 -64 24 61 7 102 3 129 -9 72z"/>
<path d="M21901 8674 c0 -11 3 -14 6 -6 3 7 2 16 -1 19 -3 4 -6 -2 -5 -13z"/>
<path d="M399 8548 c-20 -48 -41 -540 -25 -566 6 -10 16 -165 20 -317 4 -123
23 -316 33 -325 3 -3 3 38 -1 90 -12 174 -27 515 -28 650 -1 87 11 385 17 422
3 21 2 39 -5 43 -5 3 -11 5 -11 3z"/>
<path d="M21817 8530 c-10 -34 -37 -228 -36 -265 1 -42 3 -37 19 55 26 150 32
198 27 211 -4 12 -6 11 -10 -1z"/>
<path d="M21853 8355 c0 -22 2 -30 4 -17 2 12 2 30 0 40 -3 9 -5 -1 -4 -23z"/>
<path d="M21832 8245 c0 -16 2 -22 5 -12 2 9 2 23 0 30 -3 6 -5 -1 -5 -18z"/>
<path d="M21763 8155 c0 -33 2 -45 4 -27 2 18 2 45 0 60 -2 15 -4 0 -4 -33z"/>
<path d="M21747 8067 c-4 -10 -7 -35 -6 -55 l1 -37 9 34 c6 18 9 43 7 55 -3
19 -4 19 -11 3z"/>
<path d="M21733 7930 c0 -25 2 -35 4 -22 2 12 2 32 0 45 -2 12 -4 2 -4 -23z"/>
<path d="M18098 7908 c-3 -7 -1 -24 3 -38 6 -22 7 -20 8 13 1 38 -3 47 -11 25z"/>
<path d="M21363 7870 c0 -25 2 -35 4 -22 2 12 2 32 0 45 -2 12 -4 2 -4 -23z"/>
<path d="M21343 7770 c0 -25 2 -35 4 -22 2 12 2 32 0 45 -2 12 -4 2 -4 -23z"/>
<path d="M21323 7640 c0 -25 2 -35 4 -22 2 12 2 32 0 45 -2 12 -4 2 -4 -23z"/>
<path d="M21312 7530 c0 -14 2 -19 5 -12 2 6 2 18 0 25 -3 6 -5 1 -5 -13z"/>
<path d="M21742 7420 c0 -14 2 -19 5 -12 2 6 2 18 0 25 -3 6 -5 1 -5 -13z"/>
<path d="M13917 7413 c-4 -3 -7 -12 -7 -20 0 -11 4 -11 20 -3 11 6 18 15 15
21 -7 11 -19 12 -28 2z"/>
<path d="M442 7245 c0 -16 2 -22 5 -12 2 9 2 23 0 30 -3 6 -5 -1 -5 -18z"/>
<path d="M19157 7156 c-6 -15 1 -26 15 -26 4 0 8 9 8 20 0 23 -15 27 -23 6z"/>
<path d="M465 7093 c6 -35 23 -119 40 -198 8 -33 19 -89 25 -125 7 -36 23
-101 36 -145 13 -44 30 -104 37 -133 7 -28 19 -58 26 -65 11 -10 12 -8 8 8
-29 101 -91 344 -103 400 -8 39 -22 99 -30 135 -8 36 -17 82 -20 103 -4 21
-10 40 -15 42 -4 3 -6 -7 -4 -22z"/>
<path d="M541 6524 c0 -11 3 -14 6 -6 3 7 2 16 -1 19 -3 4 -6 -2 -5 -13z"/>
<path d="M18116 6508 c-5 -16 -5 -36 0 -45 7 -16 8 -15 11 5 3 12 3 32 0 45
-3 21 -4 20 -11 -5z"/>
<path d="M582 6375 c0 -16 2 -22 5 -12 2 9 2 23 0 30 -3 6 -5 -1 -5 -18z"/>
<path d="M700 6008 c0 -23 22 -75 26 -62 3 6 -2 26 -10 45 -9 19 -15 26 -16
17z"/>
<path d="M32905 5328 c-43 -11 -170 -54 -350 -119 -60 -22 -141 -51 -180 -63
-126 -42 -322 -114 -372 -136 -26 -12 -59 -26 -73 -30 -14 -5 -88 -32 -165
-60 -77 -28 -156 -55 -175 -60 -55 -14 -166 -46 -265 -75 -100 -30 -100 -30
-409 -108 -224 -57 -262 -64 -496 -93 -187 -23 -548 -32 -669 -17 -171 21
-312 54 -396 93 -92 42 -127 74 -143 128 -14 46 -60 92 -96 96 -14 2 -26 2
-26 0 0 -9 30 -116 35 -124 3 -5 -3 -14 -14 -20 -16 -8 -23 -6 -35 12 -9 12
-16 28 -16 35 0 16 -30 44 -40 38 -5 -3 3 -39 17 -80 20 -61 32 -81 61 -102
21 -15 55 -40 76 -57 46 -34 119 -63 301 -116 132 -39 179 -44 455 -53 116 -3
405 14 500 29 47 8 126 21 175 29 150 23 247 45 310 70 33 13 96 31 140 40 44
10 107 27 140 40 33 12 94 33 135 47 41 15 107 38 145 53 39 15 86 31 105 37
19 6 40 13 45 17 6 4 30 13 55 21 46 13 152 56 225 89 22 11 58 25 80 32 22 7
45 16 50 20 6 3 34 14 64 24 29 9 65 24 80 31 14 8 31 14 38 14 7 0 16 6 20
13 4 7 33 21 63 31 30 11 66 26 80 33 14 7 32 13 40 13 9 0 26 7 39 16 28 20
206 90 281 111 30 8 81 28 114 44 32 16 64 29 71 29 7 0 23 9 36 20 22 18 23
19 4 18 -11 0 -38 -5 -60 -10z"/>
<path d="M20585 3845 c-101 -16 -163 -34 -350 -103 -82 -31 -175 -64 -205 -75
-74 -25 -216 -92 -224 -105 -3 -6 -2 -13 4 -17 5 -3 10 -17 10 -31 0 -19 5
-24 24 -24 17 0 29 -9 38 -27 11 -24 20 -28 61 -31 33 -2 50 -8 57 -22 11 -20
70 -41 255 -91 66 -17 165 -44 220 -60 55 -15 143 -39 195 -52 133 -35 350
-101 445 -135 250 -92 317 -120 327 -135 17 -27 -42 -228 -100 -341 -59 -115
-60 -119 -23 -76 45 50 94 141 131 240 57 153 72 190 81 196 15 9 10 -37 -11
-104 -62 -196 -151 -345 -323 -536 -55 -61 -105 -115 -111 -121 -20 -17 -49
-68 -35 -59 30 17 144 133 187 189 26 33 52 66 58 72 7 7 22 29 35 50 13 21
26 40 29 43 6 5 64 95 90 140 29 52 60 120 60 134 0 8 5 18 10 21 6 3 10 16
10 28 1 12 7 33 15 47 l14 25 1 -30 c0 -17 -7 -57 -15 -89 -8 -32 -13 -62 -9
-67 3 -5 1 -9 -3 -9 -5 0 -16 -17 -25 -37 -22 -49 -78 -147 -87 -153 -4 -3
-29 -36 -55 -75 -27 -38 -81 -101 -120 -140 -39 -38 -84 -86 -99 -105 -15 -19
-39 -48 -52 -65 -14 -16 -25 -33 -25 -37 0 -4 -24 -36 -53 -70 -83 -100 -179
-218 -223 -278 -63 -84 -324 -456 -375 -535 -25 -38 -80 -122 -121 -185 -41
-63 -105 -161 -142 -217 -36 -57 -73 -103 -81 -103 -8 0 -15 4 -15 9 0 13 -64
20 -72 8 -3 -6 -15 -11 -26 -12 -29 -2 -52 -24 -52 -51 0 -18 -6 -23 -32 -26
-29 -3 -34 -9 -59 -69 -14 -36 -47 -94 -73 -129 -25 -35 -46 -72 -46 -81 0
-31 12 -49 31 -49 12 0 26 -15 38 -39 21 -41 53 -54 108 -43 32 6 82 83 123
189 17 44 46 101 64 125 37 49 170 250 331 503 180 281 388 567 524 721 20 22
49 56 65 75 57 67 121 135 236 254 64 66 149 159 189 208 40 48 77 87 82 87 5
0 9 11 9 25 0 23 10 30 34 26 5 -1 16 4 25 12 9 8 36 21 61 30 25 8 83 29 129
46 46 17 91 31 100 31 16 0 -152 -84 -219 -110 -19 -7 -40 -17 -46 -22 -6 -5
-18 -6 -26 -3 -8 3 -21 -1 -28 -9 -36 -44 70 -16 351 93 100 39 191 95 203
126 2 7 -4 23 -15 36 -27 31 -18 34 25 8 26 -15 40 -19 48 -11 11 11 -92 115
-160 161 -20 13 -39 27 -42 31 -3 4 -13 9 -22 13 -10 4 -15 12 -12 21 4 11 0
13 -14 9 -14 -3 -21 2 -25 16 -5 19 -61 51 -130 75 -12 4 -16 12 -13 23 11 35
34 289 30 323 -10 76 -38 170 -51 170 -7 0 -13 9 -13 19 0 25 -59 87 -105 112
-42 23 -46 23 -39 5 6 -17 -65 17 -117 56 -189 139 -551 209 -844 163z m531
-205 c96 -19 294 -106 345 -151 35 -31 59 -131 59 -241 0 -69 -13 -158 -24
-158 -4 0 -130 45 -226 80 -170 63 -498 167 -680 215 -74 19 -157 42 -185 50
-27 8 -71 20 -97 26 -27 6 -48 16 -48 23 0 6 15 20 33 30 42 26 198 92 262
112 139 44 380 50 561 14z m497 -174 c19 -48 18 -156 -2 -241 -11 -49 -23
-114 -25 -144 -5 -61 -33 -104 -49 -76 -5 9 -6 23 -3 32 19 49 38 175 42 288
3 72 7 136 9 143 6 16 22 15 28 -2z m84 -203 c-2 -21 -4 -6 -4 32 0 39 2 55 4
38 2 -18 2 -50 0 -70z m-31 -240 c-10 -10 -19 5 -10 18 6 11 8 11 12 0 2 -7 1
-15 -2 -18z m100 -235 c52 -39 104 -92 104 -106 0 -18 -47 -56 -73 -57 -11 -1
-31 -14 -44 -29 -24 -28 -125 -86 -149 -86 -8 0 -17 -7 -20 -15 -4 -8 -10 -15
-15 -15 -16 0 -9 30 11 47 11 10 20 29 20 43 0 14 4 30 9 36 5 5 21 43 36 84
26 74 57 120 80 120 7 0 25 -10 41 -22z"/>
<path d="M2743 3190 c19 -16 40 -30 48 -30 13 0 -60 59 -74 60 -4 0 8 -13 26
-30z"/>
<path d="M2830 3133 c0 -6 18 -22 40 -37 70 -46 58 -29 -22 33 -10 7 -18 9
-18 4z"/>
<path d="M2975 3015 c22 -18 56 -42 75 -52 19 -10 38 -22 41 -27 4 -5 12 -7
18 -5 11 4 -150 119 -166 119 -5 0 10 -16 32 -35z"/>
<path d="M3160 2895 c7 -8 19 -15 27 -15 12 0 12 2 -1 15 -8 8 -20 15 -27 15
-9 0 -8 -4 1 -15z"/>
<path d="M3241 2840 c47 -32 70 -39 45 -15 -8 8 -19 15 -24 15 -5 0 -15 7 -22
15 -7 8 -19 15 -28 15 -8 0 5 -13 29 -30z"/>
<path d="M3310 2796 c0 -2 7 -7 16 -10 8 -3 12 -2 9 4 -6 10 -25 14 -25 6z"/>
<path d="M3415 2725 c17 -14 35 -25 41 -25 6 0 17 -6 23 -13 31 -39 307 -194
320 -181 6 6 -26 30 -64 48 -17 8 -48 26 -69 41 -21 14 -63 39 -94 55 -32 17
-66 36 -77 43 -93 59 -132 74 -80 32z"/>
<path d="M3835 2477 c28 -21 204 -127 210 -127 5 0 125 -56 273 -126 73 -35
139 -64 146 -64 7 0 34 -12 60 -26 25 -14 54 -23 63 -21 14 4 13 5 -4 6 -13 0
-23 6 -23 11 0 6 -4 10 -9 10 -18 0 -436 203 -551 267 -161 89 -231 119 -165
70z"/>
<path d="M21170 2359 c-63 -64 -85 -99 -62 -99 9 0 85 87 121 138 36 51 16 38
-59 -39z"/>
<path d="M20987 2082 c-19 -20 -23 -37 -7 -27 10 6 33 45 27 45 -2 0 -11 -8
-20 -18z"/>
<path d="M20945 2039 c-4 -6 -5 -12 -2 -15 2 -3 7 2 10 11 7 17 1 20 -8 4z"/>
<path d="M20915 2006 c-23 -25 -26 -40 -4 -19 12 12 21 24 18 27 -2 2 -9 -1
-14 -8z"/>
<path d="M20037 783 c-4 -3 -7 -11 -7 -17 0 -6 5 -5 12 2 6 6 9 14 7 17 -3 3
-9 2 -12 -2z"/>
</g>
</svg>
